<?xml version="1.0" encoding="utf-8"?>
<!-- Generator: Adobe Illustrator 19.0.0, SVG Export Plug-In . SVG Version: 6.00 Build 0)  -->
<svg version="1.1" id="Layer_1" xmlns="http://www.w3.org/2000/svg" xmlns:xlink="http://www.w3.org/1999/xlink" x="0px" y="0px"
	 viewBox="0 0 184 184" style="enable-background:new 0 0 184 184;" xml:space="preserve">
<style type="text/css">
	.st0{display:none;}
	.st1{display:inline;opacity:0;}
	.st2{fill:none;stroke:#000000;stroke-width:2;stroke-miterlimit:10;}
	.st3{display:inline;}
	.st4{opacity:0.75;}
	.st5{fill:#DFDFDF;}
	.st6{fill:none;stroke:#808183;stroke-width:2;stroke-miterlimit:10;}
</style>
<g id="XMLID_29_" class="st0">
	<g id="XMLID_299_" class="st1">
		<path id="XMLID_336_" d="M178.3,70.8c0,0-6.7-27.1-33.3-46.3C116.9,4.3,92,5.6,92,5.6S67.1,4.3,39,24.5
			C12.4,43.7,5.7,70.8,5.7,70.8S2,82.5,2,91.1c0,13,4.2,22.2,4.2,22.2s19.8,4.5,27.8,16.2c4,5.8,8.1,17.9,8.5,25.5
			c0.5,9.3,0.2,16.8,0.2,16.8S65,181.2,90,182.4c0.7,0,2,0,2,0s1.3,0,2,0c25.1-1.2,47.3-10.5,47.3-10.5s-0.3-7.5,0.2-16.8
			c0.4-7.6,4.5-19.6,8.5-25.5c8-11.7,27.8-16.2,27.8-16.2s4.2-9.2,4.2-22.2C182,82.5,178.3,70.8,178.3,70.8z M14.7,109.4
			c-4.1,0-7.5-3.4-7.5-7.5c0-4.1,3.4-7.5,7.5-7.5c4.1,0,7.5,3.4,7.5,7.5C22.2,106,18.8,109.4,14.7,109.4z M55.4,170.7
			c-4.1,0-7.5-3.4-7.5-7.5c0-4.1,3.4-7.5,7.5-7.5c4.1,0,7.5,3.4,7.5,7.5C62.9,167.4,59.5,170.7,55.4,170.7z M72.7,18.9
			c-0.8,3.2-0.8,4.7-0.8,4.7s-25.3,7.2-36.1,15.7c-1.8,1.4,16.7-20.9,39.8-26.1C75.5,13.1,73.5,15.7,72.7,18.9z M84.5,172.4
			 M99.5,172.4 M92,101.9c-4.1,0-7.5-3.4-7.5-7.5c0-4.1,3.4-7.5,7.5-7.5c4.1,0,7.5,3.4,7.5,7.5C99.5,98.5,96.1,101.9,92,101.9z
			 M92,28.1c-4.1,0-7.5-3.4-7.5-7.5c0-4.1,3.4-7.5,7.5-7.5c4.1,0,7.5,3.4,7.5,7.5C99.5,24.7,96.1,28.1,92,28.1z M128.6,170.7
			c-4.1,0-7.5-3.4-7.5-7.5c0-4.1,3.4-7.5,7.5-7.5c4.1,0,7.5,3.4,7.5,7.5C136.1,167.4,132.8,170.7,128.6,170.7z M148.3,39.2
			c-10.8-8.4-36.1-15.7-36.1-15.7s0-1.5-0.8-4.7c-0.8-3.2-2.8-5.8-2.8-5.8C131.6,18.3,150.1,40.6,148.3,39.2z M169.5,109.4
			c-4.1,0-7.5-3.4-7.5-7.5c0-4.1,3.4-7.5,7.5-7.5c4.1,0,7.5,3.4,7.5,7.5C177,106,173.6,109.4,169.5,109.4z"/>
		<path id="XMLID_324_" class="st2" d="M178.3,70.8c0,0-6.7-27.1-33.3-46.3C116.9,4.3,92,5.6,92,5.6S67.1,4.3,39,24.5
			C12.4,43.7,5.7,70.8,5.7,70.8S2,82.5,2,91.1c0,13,4.2,22.2,4.2,22.2s19.8,4.5,27.8,16.2c4,5.8,8.1,17.9,8.5,25.5
			c0.5,9.3,0.2,16.8,0.2,16.8S65,181.2,90,182.4c0.7,0,2,0,2,0s1.3,0,2,0c25.1-1.2,47.3-10.5,47.3-10.5s-0.3-7.5,0.2-16.8
			c0.4-7.6,4.5-19.6,8.5-25.5c8-11.7,27.8-16.2,27.8-16.2s4.2-9.2,4.2-22.2C182,82.5,178.3,70.8,178.3,70.8z M14.7,109.4
			c-4.1,0-7.5-3.4-7.5-7.5c0-4.1,3.4-7.5,7.5-7.5c4.1,0,7.5,3.4,7.5,7.5C22.2,106,18.8,109.4,14.7,109.4z M55.4,170.7
			c-4.1,0-7.5-3.4-7.5-7.5c0-4.1,3.4-7.5,7.5-7.5c4.1,0,7.5,3.4,7.5,7.5C62.9,167.4,59.5,170.7,55.4,170.7z M72.7,18.9
			c-0.8,3.2-0.8,4.7-0.8,4.7s-25.3,7.2-36.1,15.7c-1.8,1.4,16.7-20.9,39.8-26.1C75.5,13.1,73.5,15.7,72.7,18.9z M84.5,172.4
			 M99.5,172.4 M92,101.9c-4.1,0-7.5-3.4-7.5-7.5c0-4.1,3.4-7.5,7.5-7.5c4.1,0,7.5,3.4,7.5,7.5C99.5,98.5,96.1,101.9,92,101.9z
			 M92,28.1c-4.1,0-7.5-3.4-7.5-7.5c0-4.1,3.4-7.5,7.5-7.5c4.1,0,7.5,3.4,7.5,7.5C99.5,24.7,96.1,28.1,92,28.1z M128.6,170.7
			c-4.1,0-7.5-3.4-7.5-7.5c0-4.1,3.4-7.5,7.5-7.5c4.1,0,7.5,3.4,7.5,7.5C136.1,167.4,132.8,170.7,128.6,170.7z M148.3,39.2
			c-10.8-8.4-36.1-15.7-36.1-15.7s0-1.5-0.8-4.7c-0.8-3.2-2.8-5.8-2.8-5.8C131.6,18.3,150.1,40.6,148.3,39.2z M169.5,109.4
			c-4.1,0-7.5-3.4-7.5-7.5c0-4.1,3.4-7.5,7.5-7.5c4.1,0,7.5,3.4,7.5,7.5C177,106,173.6,109.4,169.5,109.4z"/>
		<path id="XMLID_312_" d="M178.3,66.8c0,0-6.7-27.1-33.3-46.3C116.9,0.3,92,1.6,92,1.6S67.1,0.3,39,20.5
			C12.4,39.7,5.7,66.8,5.7,66.8S2,78.5,2,87.1c0,13,4.2,22.2,4.2,22.2s19.8,4.5,27.8,16.2c4,5.8,8.1,17.9,8.5,25.5
			c0.5,9.3,0.2,16.8,0.2,16.8S65,177.2,90,178.4c0.7,0,2,0,2,0s1.3,0,2,0c25.1-1.2,47.3-10.5,47.3-10.5s-0.3-7.5,0.2-16.8
			c0.4-7.6,4.5-19.6,8.5-25.5c8-11.7,27.8-16.2,27.8-16.2s4.2-9.2,4.2-22.2C182,78.5,178.3,66.8,178.3,66.8z M14.7,105.4
			c-4.1,0-7.5-3.4-7.5-7.5c0-4.1,3.4-7.5,7.5-7.5c4.1,0,7.5,3.4,7.5,7.5C22.2,102,18.8,105.4,14.7,105.4z M55.4,166.7
			c-4.1,0-7.5-3.4-7.5-7.5c0-4.1,3.4-7.5,7.5-7.5c4.1,0,7.5,3.4,7.5,7.5C62.9,163.4,59.5,166.7,55.4,166.7z M72.7,14.9
			c-0.8,3.2-0.8,4.7-0.8,4.7s-25.3,7.2-36.1,15.7c-1.8,1.4,16.7-20.9,39.8-26.1C75.5,9.1,73.5,11.7,72.7,14.9z M84.5,168.4
			 M99.5,168.4 M92,97.9c-4.1,0-7.5-3.4-7.5-7.5c0-4.1,3.4-7.5,7.5-7.5c4.1,0,7.5,3.4,7.5,7.5C99.5,94.5,96.1,97.9,92,97.9z
			 M92,24.1c-4.1,0-7.5-3.4-7.5-7.5c0-4.1,3.4-7.5,7.5-7.5c4.1,0,7.5,3.4,7.5,7.5C99.5,20.7,96.1,24.1,92,24.1z M128.6,166.7
			c-4.1,0-7.5-3.4-7.5-7.5c0-4.1,3.4-7.5,7.5-7.5c4.1,0,7.5,3.4,7.5,7.5C136.1,163.4,132.8,166.7,128.6,166.7z M148.3,35.2
			c-10.8-8.4-36.1-15.7-36.1-15.7s0-1.5-0.8-4.7c-0.8-3.2-2.8-5.8-2.8-5.8C131.6,14.3,150.1,36.6,148.3,35.2z M169.5,105.4
			c-4.1,0-7.5-3.4-7.5-7.5c0-4.1,3.4-7.5,7.5-7.5c4.1,0,7.5,3.4,7.5,7.5C177,102,173.6,105.4,169.5,105.4z"/>
		<path id="XMLID_300_" class="st2" d="M178.3,66.8c0,0-6.7-27.1-33.3-46.3C116.9,0.3,92,1.6,92,1.6S67.1,0.3,39,20.5
			C12.4,39.7,5.7,66.8,5.7,66.8S2,78.5,2,87.1c0,13,4.2,22.2,4.2,22.2s19.8,4.5,27.8,16.2c4,5.8,8.1,17.9,8.5,25.5
			c0.5,9.3,0.2,16.8,0.2,16.8S65,177.2,90,178.4c0.7,0,2,0,2,0s1.3,0,2,0c25.1-1.2,47.3-10.5,47.3-10.5s-0.3-7.5,0.2-16.8
			c0.4-7.6,4.5-19.6,8.5-25.5c8-11.7,27.8-16.2,27.8-16.2s4.2-9.2,4.2-22.2C182,78.5,178.3,66.8,178.3,66.8z M14.7,105.4
			c-4.1,0-7.5-3.4-7.5-7.5c0-4.1,3.4-7.5,7.5-7.5c4.1,0,7.5,3.4,7.5,7.5C22.2,102,18.8,105.4,14.7,105.4z M55.4,166.7
			c-4.1,0-7.5-3.4-7.5-7.5c0-4.1,3.4-7.5,7.5-7.5c4.1,0,7.5,3.4,7.5,7.5C62.9,163.4,59.5,166.7,55.4,166.7z M72.7,14.9
			c-0.8,3.2-0.8,4.7-0.8,4.7s-25.3,7.2-36.1,15.7c-1.8,1.4,16.7-20.9,39.8-26.1C75.5,9.1,73.5,11.7,72.7,14.9z M84.5,168.4
			 M99.5,168.4 M92,97.9c-4.1,0-7.5-3.4-7.5-7.5c0-4.1,3.4-7.5,7.5-7.5c4.1,0,7.5,3.4,7.5,7.5C99.5,94.5,96.1,97.9,92,97.9z
			 M92,24.1c-4.1,0-7.5-3.4-7.5-7.5c0-4.1,3.4-7.5,7.5-7.5c4.1,0,7.5,3.4,7.5,7.5C99.5,20.7,96.1,24.1,92,24.1z M128.6,166.7
			c-4.1,0-7.5-3.4-7.5-7.5c0-4.1,3.4-7.5,7.5-7.5c4.1,0,7.5,3.4,7.5,7.5C136.1,163.4,132.8,166.7,128.6,166.7z M148.3,35.2
			c-10.8-8.4-36.1-15.7-36.1-15.7s0-1.5-0.8-4.7c-0.8-3.2-2.8-5.8-2.8-5.8C131.6,14.3,150.1,36.6,148.3,35.2z M169.5,105.4
			c-4.1,0-7.5-3.4-7.5-7.5c0-4.1,3.4-7.5,7.5-7.5c4.1,0,7.5,3.4,7.5,7.5C177,102,173.6,105.4,169.5,105.4z"/>
	</g>
	<g id="XMLID_246_" class="st3">
		<g id="XMLID_274_" class="st4">
			<path id="XMLID_287_" d="M178.3,70.8c0,0-6.7-27.1-33.3-46.3C116.9,4.3,92,5.6,92,5.6S67.1,4.3,39,24.5
				C12.4,43.7,5.7,70.8,5.7,70.8S2,82.5,2,91.1c0,13,4.2,22.2,4.2,22.2s19.8,4.5,27.8,16.2c4,5.8,8.1,17.9,8.5,25.5
				c0.5,9.3,0.2,16.8,0.2,16.8S65,181.2,90,182.4c0.7,0,2,0,2,0s1.3,0,2,0c25.1-1.2,47.3-10.5,47.3-10.5s-0.3-7.5,0.2-16.8
				c0.4-7.6,4.5-19.6,8.5-25.5c8-11.7,27.8-16.2,27.8-16.2s4.2-9.2,4.2-22.2C182,82.5,178.3,70.8,178.3,70.8z M14.7,109.4
				c-4.1,0-7.5-3.4-7.5-7.5c0-4.1,3.4-7.5,7.5-7.5c4.1,0,7.5,3.4,7.5,7.5C22.2,106,18.8,109.4,14.7,109.4z M55.4,170.7
				c-4.1,0-7.5-3.4-7.5-7.5c0-4.1,3.4-7.5,7.5-7.5c4.1,0,7.5,3.4,7.5,7.5C62.9,167.4,59.5,170.7,55.4,170.7z M72.7,18.9
				c-0.8,3.2-0.8,4.7-0.8,4.7s-25.3,7.2-36.1,15.7c-1.8,1.4,16.7-20.9,39.8-26.1C75.5,13.1,73.5,15.7,72.7,18.9z M84.5,172.4
				 M99.5,172.4 M92,101.9c-4.1,0-7.5-3.4-7.5-7.5c0-4.1,3.4-7.5,7.5-7.5c4.1,0,7.5,3.4,7.5,7.5C99.5,98.5,96.1,101.9,92,101.9z
				 M92,28.1c-4.1,0-7.5-3.4-7.5-7.5c0-4.1,3.4-7.5,7.5-7.5c4.1,0,7.5,3.4,7.5,7.5C99.5,24.7,96.1,28.1,92,28.1z M128.6,170.7
				c-4.1,0-7.5-3.4-7.5-7.5c0-4.1,3.4-7.5,7.5-7.5c4.1,0,7.5,3.4,7.5,7.5C136.1,167.4,132.8,170.7,128.6,170.7z M148.3,39.2
				c-10.8-8.4-36.1-15.7-36.1-15.7s0-1.5-0.8-4.7c-0.8-3.2-2.8-5.8-2.8-5.8C131.6,18.3,150.1,40.6,148.3,39.2z M169.5,109.4
				c-4.1,0-7.5-3.4-7.5-7.5c0-4.1,3.4-7.5,7.5-7.5c4.1,0,7.5,3.4,7.5,7.5C177,106,173.6,109.4,169.5,109.4z"/>
			<path id="XMLID_275_" class="st2" d="M178.3,70.8c0,0-6.7-27.1-33.3-46.3C116.9,4.3,92,5.6,92,5.6S67.1,4.3,39,24.5
				C12.4,43.7,5.7,70.8,5.7,70.8S2,82.5,2,91.1c0,13,4.2,22.2,4.2,22.2s19.8,4.5,27.8,16.2c4,5.8,8.1,17.9,8.5,25.5
				c0.5,9.3,0.2,16.8,0.2,16.8S65,181.2,90,182.4c0.7,0,2,0,2,0s1.3,0,2,0c25.1-1.2,47.3-10.5,47.3-10.5s-0.3-7.5,0.2-16.8
				c0.4-7.6,4.5-19.6,8.5-25.5c8-11.7,27.8-16.2,27.8-16.2s4.2-9.2,4.2-22.2C182,82.5,178.3,70.8,178.3,70.8z M14.7,109.4
				c-4.1,0-7.5-3.4-7.5-7.5c0-4.1,3.4-7.5,7.5-7.5c4.1,0,7.5,3.4,7.5,7.5C22.2,106,18.8,109.4,14.7,109.4z M55.4,170.7
				c-4.1,0-7.5-3.4-7.5-7.5c0-4.1,3.4-7.5,7.5-7.5c4.1,0,7.5,3.4,7.5,7.5C62.9,167.4,59.5,170.7,55.4,170.7z M72.7,18.9
				c-0.8,3.2-0.8,4.7-0.8,4.7s-25.3,7.2-36.1,15.7c-1.8,1.4,16.7-20.9,39.8-26.1C75.5,13.1,73.5,15.7,72.7,18.9z M84.5,172.4
				 M99.5,172.4 M92,101.9c-4.1,0-7.5-3.4-7.5-7.5c0-4.1,3.4-7.5,7.5-7.5c4.1,0,7.5,3.4,7.5,7.5C99.5,98.5,96.1,101.9,92,101.9z
				 M92,28.1c-4.1,0-7.5-3.4-7.5-7.5c0-4.1,3.4-7.5,7.5-7.5c4.1,0,7.5,3.4,7.5,7.5C99.5,24.7,96.1,28.1,92,28.1z M128.6,170.7
				c-4.1,0-7.5-3.4-7.5-7.5c0-4.1,3.4-7.5,7.5-7.5c4.1,0,7.5,3.4,7.5,7.5C136.1,167.4,132.8,170.7,128.6,170.7z M148.3,39.2
				c-10.8-8.4-36.1-15.7-36.1-15.7s0-1.5-0.8-4.7c-0.8-3.2-2.8-5.8-2.8-5.8C131.6,18.3,150.1,40.6,148.3,39.2z M169.5,109.4
				c-4.1,0-7.5-3.4-7.5-7.5c0-4.1,3.4-7.5,7.5-7.5c4.1,0,7.5,3.4,7.5,7.5C177,106,173.6,109.4,169.5,109.4z"/>
		</g>
		<g id="XMLID_247_">
			<g id="XMLID_261_">
				<path id="XMLID_262_" class="st5" d="M178.3,66.8c0,0-6.7-27.1-33.3-46.3C116.9,0.3,92,1.6,92,1.6S67.1,0.3,39,20.5
					C12.4,39.7,5.7,66.8,5.7,66.8S2,78.5,2,87.1c0,13,4.2,22.2,4.2,22.2s19.8,4.5,27.8,16.2c4,5.8,8.1,17.9,8.5,25.5
					c0.5,9.3,0.2,16.8,0.2,16.8S65,177.2,90,178.4c0.7,0,2,0,2,0s1.3,0,2,0c25.1-1.2,47.3-10.5,47.3-10.5s-0.3-7.5,0.2-16.8
					c0.4-7.6,4.5-19.6,8.5-25.5c8-11.7,27.8-16.2,27.8-16.2s4.2-9.2,4.2-22.2C182,78.5,178.3,66.8,178.3,66.8z M14.7,105.4
					c-4.1,0-7.5-3.4-7.5-7.5c0-4.1,3.4-7.5,7.5-7.5c4.1,0,7.5,3.4,7.5,7.5C22.2,102,18.8,105.4,14.7,105.4z M55.4,166.7
					c-4.1,0-7.5-3.4-7.5-7.5c0-4.1,3.4-7.5,7.5-7.5c4.1,0,7.5,3.4,7.5,7.5C62.9,163.4,59.5,166.7,55.4,166.7z M72.7,14.9
					c-0.8,3.2-0.8,4.7-0.8,4.7s-25.3,7.2-36.1,15.7c-1.8,1.4,16.7-20.9,39.8-26.1C75.5,9.1,73.5,11.7,72.7,14.9z M84.5,168.4
					 M99.5,168.4 M92,97.9c-4.1,0-7.5-3.4-7.5-7.5c0-4.1,3.4-7.5,7.5-7.5c4.1,0,7.5,3.4,7.5,7.5C99.5,94.5,96.1,97.9,92,97.9z
					 M92,24.1c-4.1,0-7.5-3.4-7.5-7.5c0-4.1,3.4-7.5,7.5-7.5c4.1,0,7.5,3.4,7.5,7.5C99.5,20.7,96.1,24.1,92,24.1z M128.6,166.7
					c-4.1,0-7.5-3.4-7.5-7.5c0-4.1,3.4-7.5,7.5-7.5c4.1,0,7.5,3.4,7.5,7.5C136.1,163.4,132.8,166.7,128.6,166.7z M148.3,35.2
					c-10.8-8.4-36.1-15.7-36.1-15.7s0-1.5-0.8-4.7c-0.8-3.2-2.8-5.8-2.8-5.8C131.6,14.3,150.1,36.6,148.3,35.2z M169.5,105.4
					c-4.1,0-7.5-3.4-7.5-7.5c0-4.1,3.4-7.5,7.5-7.5c4.1,0,7.5,3.4,7.5,7.5C177,102,173.6,105.4,169.5,105.4z"/>
			</g>
			<g id="XMLID_248_">
				<path id="XMLID_249_" class="st6" d="M178.3,66.8c0,0-6.7-27.1-33.3-46.3C116.9,0.3,92,1.6,92,1.6S67.1,0.3,39,20.5
					C12.4,39.7,5.7,66.8,5.7,66.8S2,78.5,2,87.1c0,13,4.2,22.2,4.2,22.2s19.8,4.5,27.8,16.2c4,5.8,8.1,17.9,8.5,25.5
					c0.5,9.3,0.2,16.8,0.2,16.8S65,177.2,90,178.4c0.7,0,2,0,2,0s1.3,0,2,0c25.1-1.2,47.3-10.5,47.3-10.5s-0.3-7.5,0.2-16.8
					c0.4-7.6,4.5-19.6,8.5-25.5c8-11.7,27.8-16.2,27.8-16.2s4.2-9.2,4.2-22.2C182,78.5,178.3,66.8,178.3,66.8z M14.7,105.4
					c-4.1,0-7.5-3.4-7.5-7.5c0-4.1,3.4-7.5,7.5-7.5c4.1,0,7.5,3.4,7.5,7.5C22.2,102,18.8,105.4,14.7,105.4z M55.4,166.7
					c-4.1,0-7.5-3.4-7.5-7.5c0-4.1,3.4-7.5,7.5-7.5c4.1,0,7.5,3.4,7.5,7.5C62.9,163.4,59.5,166.7,55.4,166.7z M72.7,14.9
					c-0.8,3.2-0.8,4.7-0.8,4.7s-25.3,7.2-36.1,15.7c-1.8,1.4,16.7-20.9,39.8-26.1C75.5,9.1,73.5,11.7,72.7,14.9z M84.5,168.4
					 M99.5,168.4 M92,97.9c-4.1,0-7.5-3.4-7.5-7.5c0-4.1,3.4-7.5,7.5-7.5c4.1,0,7.5,3.4,7.5,7.5C99.5,94.5,96.1,97.9,92,97.9z
					 M92,24.1c-4.1,0-7.5-3.4-7.5-7.5c0-4.1,3.4-7.5,7.5-7.5c4.1,0,7.5,3.4,7.5,7.5C99.5,20.7,96.1,24.1,92,24.1z M128.6,166.7
					c-4.1,0-7.5-3.4-7.5-7.5c0-4.1,3.4-7.5,7.5-7.5c4.1,0,7.5,3.4,7.5,7.5C136.1,163.4,132.8,166.7,128.6,166.7z M148.3,35.2
					c-10.8-8.4-36.1-15.7-36.1-15.7s0-1.5-0.8-4.7c-0.8-3.2-2.8-5.8-2.8-5.8C131.6,14.3,150.1,36.6,148.3,35.2z M169.5,105.4
					c-4.1,0-7.5-3.4-7.5-7.5c0-4.1,3.4-7.5,7.5-7.5c4.1,0,7.5,3.4,7.5,7.5C177,102,173.6,105.4,169.5,105.4z"/>
			</g>
		</g>
	</g>
</g>
<path id="XMLID_1_" d="M178.3,68.8c0,0-6.7-27.1-33.3-46.3C116.9,2.3,92,3.6,92,3.6S67.1,2.3,39,22.5C12.4,41.7,5.7,68.8,5.7,68.8
	S2,80.5,2,89.1c0,13,4.2,22.2,4.2,22.2s19.8,4.5,27.8,16.2c4,5.8,8.1,17.9,8.5,25.5c0.5,9.3,0.2,16.8,0.2,16.8S65,179.2,90,180.4
	c0.7,0,2,0,2,0s1.3,0,2,0c25.1-1.2,47.3-10.5,47.3-10.5s-0.3-7.5,0.2-16.8c0.4-7.6,4.5-19.6,8.5-25.5c8-11.7,27.8-16.2,27.8-16.2
	s4.2-9.2,4.2-22.2C182,80.5,178.3,68.8,178.3,68.8z M14.7,107.4c-4.1,0-7.5-3.4-7.5-7.5c0-4.1,3.4-7.5,7.5-7.5
	c4.1,0,7.5,3.4,7.5,7.5C22.2,104,18.8,107.4,14.7,107.4z M55.4,168.7c-4.1,0-7.5-3.4-7.5-7.5c0-4.1,3.4-7.5,7.5-7.5
	c4.1,0,7.5,3.4,7.5,7.5C62.9,165.4,59.5,168.7,55.4,168.7z M72.7,16.9c-0.8,3.2-0.8,4.7-0.8,4.7s-25.3,7.2-36.1,15.7
	c-1.8,1.4,16.7-20.9,39.8-26.1C75.5,11.1,73.5,13.7,72.7,16.9z M92,99.9c-4.1,0-7.5-3.4-7.5-7.5c0-4.1,3.4-7.5,7.5-7.5
	c4.1,0,7.5,3.4,7.5,7.5C99.5,96.5,96.1,99.9,92,99.9z M92,26.1c-4.1,0-7.5-3.4-7.5-7.5c0-4.1,3.4-7.5,7.5-7.5c4.1,0,7.5,3.4,7.5,7.5
	C99.5,22.7,96.1,26.1,92,26.1z M128.6,168.7c-4.1,0-7.5-3.4-7.5-7.5c0-4.1,3.4-7.5,7.5-7.5c4.1,0,7.5,3.4,7.5,7.5
	C136.1,165.4,132.8,168.7,128.6,168.7z M148.3,37.2c-10.8-8.4-36.1-15.7-36.1-15.7s0-1.5-0.8-4.7c-0.8-3.2-2.8-5.8-2.8-5.8
	C131.6,16.3,150.1,38.6,148.3,37.2z M169.5,107.4c-4.1,0-7.5-3.4-7.5-7.5c0-4.1,3.4-7.5,7.5-7.5c4.1,0,7.5,3.4,7.5,7.5
	C177,104,173.6,107.4,169.5,107.4z"/>
</svg>
