<?xml version="1.0" encoding="utf-8"?>
<!-- Generator: Adobe Illustrator 22.0.0, SVG Export Plug-In . SVG Version: 6.00 Build 0)  -->
<svg version="1.1" id="Capa_1" xmlns="http://www.w3.org/2000/svg" xmlns:xlink="http://www.w3.org/1999/xlink" x="0px" y="0px"
	 viewBox="0 0 32 32" style="enable-background:new 0 0 32 32;" xml:space="preserve">
<style type="text/css">
	.st0{fill:#FFFFFF;}
</style>
<g>
	<path class="st0" d="M0,3.1c0,0,0,1.9,0,4.3v21.5h32V3.1l-27.7,0H0z M19.2,23.6c0,0.6-0.5,1.2-1.2,1.2H4.5v-5.9h4.7
		c0.5,0,0.9-0.4,0.9-0.9c0-0.2-0.1-0.4-0.2-0.5c-0.6-0.5-1-1.3-1.4-2c-0.1,0-0.1,0.1-0.2,0.1c-0.5,0-1.2-1.2-1.2-2S7.2,12,7.8,12
		c0,0,0.1,0,0.1,0c0-2.2,0.4-4.9,4-4.9c3.4,0,3.9,2.7,4,5c0.1,0,0.1,0,0.2,0c0.5,0,0.6,0.7,0.6,1.5s-0.6,2-1.2,2
		c-0.1,0-0.2,0-0.2-0.1c-0.3,0.8-0.8,1.5-1.4,2.1c-0.1,0.1-0.2,0.3-0.2,0.5c0,0.5,0.4,0.9,0.9,0.9h4.7L19.2,23.6L19.2,23.6
		L19.2,23.6z M27.5,23.1h-7.2v-0.6c0-0.9-0.3-1.8-0.7-2.5h7.9V23.1z M27.5,16.5c0,0.5-0.4,0.9-0.9,0.9H15.8v-0.8
		c0,0,0.1-0.1,0.1-0.1c0.8-0.3,1.4-1.2,1.7-2.2h9.9L27.5,16.5L27.5,16.5z M27.5,10.9c0,0.5-0.4,0.9-0.9,0.9h-9.3
		c-0.1-0.3-0.3-0.5-0.5-0.6c-0.1-1-0.3-1.8-0.6-2.5h11.3L27.5,10.9L27.5,10.9z"/>
</g>
</svg>
