<?xml version="1.0" encoding="utf-8"?>
<!-- Generator: Adobe Illustrator 22.0.0, SVG Export Plug-In . SVG Version: 6.00 Build 0)  -->
<svg version="1.1" id="Capa_1" xmlns="http://www.w3.org/2000/svg" xmlns:xlink="http://www.w3.org/1999/xlink" x="0px" y="0px"
	 viewBox="0 0 512 512" style="enable-background:new 0 0 512 512;" xml:space="preserve">
<style type="text/css">
	.st0{fill:#FFFFFF;}
</style>
<g>
	<g>
		<g>
			<path class="st0" d="M512,106.7H362.7v-64c0,0,0,0,0,0H149.3c0,0,0,0,0,0v64H0c0,0,0,19.1,0,42.7V256c0,0,0,0,0,0h213.3v-21.3
				h85.3V256H512V106.7z M320,106.7H192V85.3h128V106.7z"/>
			<polygon class="st0" points="469.3,277.3 298.7,277.3 298.7,320 213.3,320 213.3,277.3 42.7,277.3 0,277.1 0,469.3 512,469.3 
				512,277.1 			"/>
		</g>
	</g>
</g>
</svg>
