<?xml version="1.0" encoding="utf-8"?>
<!-- Generator: Adobe Illustrator 19.2.1, SVG Export Plug-In . SVG Version: 6.00 Build 0)  -->
<svg version="1.1" id="Layer_1" xmlns="http://www.w3.org/2000/svg" xmlns:xlink="http://www.w3.org/1999/xlink" x="0px" y="0px"
	 viewBox="0 0 16 16" style="enable-background:new 0 0 16 16;" xml:space="preserve">
<style type="text/css">
	.st0{fill:#FFFFFF;}
</style>
<path class="st0" d="M8.8,12.5c0,0,0.3,0,0.4-0.2c0.1-0.1,0.1-0.4,0.1-0.4s0-1.3,0.6-1.5c0.6-0.2,1.3,1.2,2.1,1.8
	c0.6,0.4,1.1,0.3,1.1,0.3l2.1,0c0,0,1.1-0.1,0.6-0.9c0-0.1-0.3-0.6-1.6-1.8c-1.3-1.2-1.2-1,0.4-3.2c1-1.3,1.4-2.1,1.2-2.5
	c-0.1-0.3-0.8-0.2-0.8-0.2l-2.4,0c0,0-0.2,0-0.3,0.1c-0.1,0.1-0.2,0.3-0.2,0.3s-0.4,1-0.9,1.9C10.3,7.9,9.8,8,9.7,7.9
	C9.3,7.6,9.4,6.8,9.4,6.3c0-1.8,0.3-2.5-0.5-2.7C8.6,3.5,8.4,3.5,7.7,3.5c-0.9,0-1.6,0-2,0.2C5.5,3.8,5.3,4.1,5.4,4.1
	c0.2,0,0.5,0.1,0.7,0.4c0.3,0.3,0.2,1.1,0.2,1.1S6.5,7.6,6,7.9C5.7,8.1,5.2,7.7,4.3,6.1C3.8,5.2,3.4,4.3,3.4,4.3S3.3,4.1,3.2,4
	C3.1,3.9,2.8,3.9,2.8,3.9l-2.3,0c0,0-0.3,0-0.5,0.2c-0.1,0.1,0,0.4,0,0.4s1.8,4.2,3.8,6.3c1.9,1.9,4,1.8,4,1.8L8.8,12.5z"/>
</svg>
