<?xml version="1.0" encoding="utf-8"?>
<!-- Generator: Adobe Illustrator 19.2.1, SVG Export Plug-In . SVG Version: 6.00 Build 0)  -->
<svg version="1.1"
	 id="svg3842" inkscape:export-filename="/home/runassudo/Pictures/Dota2-Filled.png" inkscape:export-xdpi="90" inkscape:export-ydpi="90" inkscape:version="0.48.3.1 r9886" sodipodi:docname="Dota2-Filled.svg" xmlns:cc="http://creativecommons.org/ns#" xmlns:dc="http://purl.org/dc/elements/1.1/" xmlns:inkscape="http://www.inkscape.org/namespaces/inkscape" xmlns:rdf="http://www.w3.org/1999/02/22-rdf-syntax-ns#" xmlns:sodipodi="http://sodipodi.sourceforge.net/DTD/sodipodi-0.dtd" xmlns:svg="http://www.w3.org/2000/svg"
	 xmlns="http://www.w3.org/2000/svg" xmlns:xlink="http://www.w3.org/1999/xlink" x="0px" y="0px" viewBox="0 0 399.262 403.557"
	 enable-background="new 0 0 399.262 403.557" xml:space="preserve">
<path opacity="0.82" fill="#111111" d="M393.97,388.524l-1.452-156.604c-16.459,1.694-10.166-3.873-10.166-3.873
	c3.147,2.663,4.841,0.726,4.841,0.726c-1.21-11.135,2.178-17.427,2.178-17.427c-4.357-3.147,1.453-16.702,1.453-16.702
	c-7.504,0.485-3.873-14.523-3.873-14.523c-6.293-1.21-5.325-5.566-5.325-5.566c4.115-4.116-1.694-1.695-1.694-1.695
	c-6.051-10.65,5.082-14.038,5.082-14.038l-4.356-11.135l11.134-0.241c5.083-60.512-2.178-95.125-2.178-95.125
	c5.809-3.147,1.453-22.752,1.453-22.752c-11.861-2.42-10.651-7.504-10.651-7.504l-10.407-0.241l-3.632-2.179
	c-0.242,8.23-19.121-0.726-19.121-0.726c-8.23,9.198-10.407-5.809-10.407-5.809c1.694,0.242-5.81-1.937-2.905,2.904
	c2.905,4.841-0.726,5.083-0.726,5.083c-68.015-7.262-73.824-1.937-73.824-1.937c7.019,4.598-0.242,10.408,0,12.102
	c-12.829-0.242-15.976,2.42-15.976,2.42c-0.241-10.892-14.038-18.154-22.511-17.427c-8.471,0.726-13.554-3.631-13.554-3.631
	c-7.988,7.503-26.383-0.242-26.383-0.242c-2.42,6.051-5.809,3.389-5.809,3.389l-7.503-0.726l-1.21,5.325l-2.42-5.083
	c-2.179,9.44-4.357,8.23-4.357,8.23l-6.032,0.215c0.047,0.379-0.113,1.218-0.745,2.932c-1.694,4.598-6.535,0-6.535,0
	s-16.46,0.968-24.689,0.484c-8.229-0.484-12.828-7.02-12.828-7.02l-3.147,4.357l-7.745-0.968l-0.484-2.42l-4.115,2.42l-17.427-0.484
	l-1.695,1.694l-2.662-2.904l-4.357-0.242l-1.937,2.178l-2.662-3.631l-1.452-0.241l-1.452,3.872l-2.42-1.936l-10.408-0.485
	l-2.244-4.186c-14.377,14.719-26.358,2.396-26.358,2.396l-1.896,15.345l-1.452-0.242l-0.726-8.956l1.694-0.484l0.484-1.453
	l-4.357-0.484L11.293,42.88c3.631,5.566,4.357-0.242,4.357-0.242l2.178,1.21c-8.229,86.895,3.631,124.17,3.631,124.17
	c-8.471,21.543,4.841,27.594,4.841,27.594l-0.484,14.523l-6.535-3.631l-0.242,3.631l3.389,1.936l-0.968,1.695
	c-3.388-2.905-4.599-2.179-4.599-2.179c-1.937,34.371,1.452,49.62,1.452,49.62l7.503,1.21l-1.694,41.148l-5.809,0.242
	c-2.42,3.872-2.662,18.879-2.662,18.879c5.325,43.085-1.937,56.155-1.937,56.155l11.134,1.695l-0.242,5.325l2.42,1.21
	c0.484-3.873,4.357-4.841,4.357-4.841c2.662,0.968,0.242,5.082,0.242,5.082l2.421,0.485l0.968-5.326h1.452l-0.242,3.147l2.421,0.243
	c10.65-4.841,11.376,0.484,11.376,0.484l0.968-6.051c1.452,3.873,12.828,3.147,12.828,3.147c9.924-1.21,11.134,3.147,11.134,3.147
	l-0.484-6.051h2.178c0.968,4.599,4.115,3.388,4.115,3.388c0.484-6.294,3.147-5.083,3.147-5.083c1.936,2.179,1.452,7.261,1.452,7.261
	l2.662,1.21c0.968-4.598,5.809-3.872,5.809-3.872l4.115-2.904v2.904h4.357l1.21-3.147c1.21,0.726,1.936,5.567,1.936,5.567h2.178
	l1.694-1.21l1.21,1.694c0.242-2.421,3.389-4.115,3.389-4.115l2.905,4.357l2.178-0.726l-0.242-3.147
	c2.179-1.21,7.261,4.115,7.261,4.115l1.21-1.452l-2.42-2.905l3.389-3.631c0.242,2.905,4.841,7.988,4.841,7.988
	c-1.695-7.503,2.662-8.713,2.662-8.713c2.663,8.472,8.23,8.713,8.23,8.713c0.484-3.388,1.694-3.631,1.694-3.631
	c6.778,7.261,20.332,0.969,20.332,0.969l9.198,15.007c2.179-2.663,7.988-2.179,7.988-2.179l-1.21-4.115
	c16.459-5.325,21.784,4.115,21.784,4.115l3.147-4.599l1.936-0.242l0.242,3.631c5.567,3.873,17.912-0.725,17.912-0.725l-2.905-2.179
	c-1.21-2.904,35.823-2.421,35.823-2.421c0.242,1.694-1.453,2.904-1.453,2.904l-9.44,0.726c9.197,6.051,16.701-1.452,16.701-1.452
	l0.969-4.116l-3.147,0.726c1.453-3.631,5.325-2.421,5.325-2.421l-1.694,5.81c2.663,0.968,4.599-0.726,4.599-0.726l0.242-4.115h1.694
	l-0.969,3.388c12.829-3.873,22.027-2.178,22.027-2.178c1.21-5.81,7.019-4.6,7.019-4.6c8.473,6.535,18.88,2.179,18.88,2.179
	c21.542,10.65,33.161-0.242,33.161-0.242c4.841,6.535,4.598-0.484,4.598-0.484l6.294-0.243l0.968-1.937l-14.523-1.21
	C362.988,370.613,393.97,388.524,393.97,388.524z M286.863,85.48c11.739-3.751,17.67,0.726,17.67,0.726l16.823,12.344l-0.121,1.573
	l-2.542-0.725c0,0-2.178,1.089-1.209,4.841c0.968,3.752,1.936-0.485,1.936-0.485l-0.241-1.936l2.178-0.122l-7.745,49.741
	l-3.147,0.242l-2.057-2.663h-3.631c0,0,0.968-7.261-2.904-7.382c-3.873-0.121-1.816,2.421-1.816,2.421l3.025,1.453l-0.846,1.694
	L238.697,98.43C238.697,98.43,275.124,89.232,286.863,85.48z M107.748,335.395l-3.268-2.057c0,0-0.805,3.351-4.067,2.277
	c-1.094,0.361-1.863-0.946-1.863-0.946c0.699,0.472,1.312,0.765,1.863,0.946c0.697-0.23,1.525-1.134,2.373-3.488
	c0,0-0.847-1.937-2.057,0l-0.847,1.815l-0.242-3.509l-2.178,1.452l-1.695-0.242l-0.363,3.146l-31.95-23.72
	c0,0-4.599-1.694-0.968-12.708c3.631-11.013,23.237-53.129,23.237-53.129l75.519,72.977L107.748,335.395z M323.534,330.433
	c-48.41,3.146-57.365-18.154-57.365-18.154l-38.728-41.391l1.694-2.178l-4.115-3.873l0.242,3.147
	c-4.115-8.23-8.956-10.892-8.956-10.892l1.21,3.872c-5.567-4.599-3.873-9.923-3.873-9.923l-7.261-9.44
	c-5.809-3.147-1.694,1.694-1.694,1.694l5.567,6.293l-1.453,2.179c0,0-9.682-8.23-15.733-19.606c-6.051-11.376-1.452,1.21-1.452,1.21
	l-37.518-40.663l2.904,2.178c0,0,3.631,4.841,1.452-0.726c-2.178-5.567-9.198-4.599-9.198-4.599l-92.946-99.24
	c27.109-17.67,40.18-3.631,40.18-3.631l28.561,20.09l-1.452,1.694l6.293,6.294l1.452-0.726l-2.904-3.631l6.051,3.388l-1.452,2.42
	l1.21,1.21l2.178-1.694l2.179,2.178l3.873,0.242c-0.484,6.294,9.198,5.809,9.198,5.809L305.381,228.53l-1.938,2.179l4.116,3.388
	l-2.421-0.243l-7.019-2.904l-0.242,3.147l18.637,1.694l31.95,21.543C346.529,301.145,323.534,330.433,323.534,330.433z"/>
<path fill="#FF652C" d="M390.97,384.524l-1.452-156.604c-16.46,1.694-10.166-3.873-10.166-3.873
	c3.147,2.663,4.841,0.726,4.841,0.726c-1.21-11.135,2.178-17.427,2.178-17.427c-4.357-3.147,1.453-16.702,1.453-16.702
	c-7.504,0.485-3.873-14.523-3.873-14.523c-6.293-1.21-5.325-5.566-5.325-5.566c4.115-4.116-1.694-1.695-1.694-1.695
	c-6.051-10.65,5.082-14.038,5.082-14.038l-4.356-11.135l11.134-0.241c5.083-60.512-2.178-95.125-2.178-95.125
	c5.809-3.147,1.453-22.752,1.453-22.752c-11.861-2.42-10.651-7.504-10.651-7.504l-10.407-0.241l-3.632-2.179
	c-0.242,8.23-19.121-0.726-19.121-0.726c-8.23,9.198-10.407-5.809-10.407-5.809c1.694,0.242-5.81-1.937-2.905,2.904
	c2.905,4.841-0.726,5.083-0.726,5.083c-68.015-7.262-73.824-1.937-73.824-1.937c7.019,4.598-0.242,10.408,0,12.102
	c-12.829-0.242-15.976,2.42-15.976,2.42c-0.241-10.892-14.038-18.154-22.511-17.427c-8.471,0.726-13.554-3.631-13.554-3.631
	c-7.988,7.503-26.383-0.242-26.383-0.242c-2.42,6.051-5.809,3.389-5.809,3.389l-7.503-0.726l-1.21,5.325l-2.42-5.083
	c-2.179,9.44-4.357,8.23-4.357,8.23l-6.032,0.215c0.047,0.379-0.113,1.218-0.745,2.932c-1.694,4.598-6.535,0-6.535,0
	s-16.46,0.968-24.689,0.484c-8.229-0.484-12.828-7.02-12.828-7.02l-3.147,4.357l-7.745-0.968l-0.484-2.42l-4.115,2.42L72.92,19.032
	l-1.695,1.694l-2.662-2.904l-4.357-0.242l-1.937,2.178l-2.662-3.631l-1.452-0.241l-1.452,3.872l-2.42-1.936l-10.408-0.485
	l-2.244-4.186c-14.377,14.719-26.358,2.396-26.358,2.396l-1.896,15.345l-1.452-0.242l-0.726-8.956l1.694-0.484l0.484-1.453
	l-4.357-0.484L8.293,38.88c3.631,5.566,4.357-0.242,4.357-0.242l2.178,1.21c-8.229,86.895,3.631,124.17,3.631,124.17
	c-8.471,21.543,4.841,27.594,4.841,27.594l-0.484,14.523l-6.535-3.631l-0.242,3.631l3.389,1.936l-0.968,1.695
	c-3.388-2.905-4.599-2.179-4.599-2.179c-1.937,34.371,1.452,49.62,1.452,49.62l7.503,1.21l-1.694,41.148l-5.809,0.242
	c-2.42,3.872-2.662,18.879-2.662,18.879c5.325,43.085-1.937,56.155-1.937,56.155l11.134,1.695l-0.242,5.325l2.42,1.21
	c0.484-3.873,4.357-4.841,4.357-4.841c2.662,0.968,0.242,5.082,0.242,5.082l2.421,0.485l0.968-5.326h1.452l-0.242,3.147l2.421,0.243
	c10.65-4.841,11.376,0.484,11.376,0.484l0.968-6.051c1.452,3.873,12.828,3.147,12.828,3.147c9.924-1.21,11.134,3.147,11.134,3.147
	l-0.484-6.051h2.178c0.968,4.599,4.115,3.388,4.115,3.388c0.484-6.294,3.147-5.083,3.147-5.083c1.936,2.179,1.452,7.261,1.452,7.261
	l2.662,1.21c0.968-4.598,5.809-3.872,5.809-3.872l4.115-2.904v2.904h4.357l1.21-3.147c1.21,0.726,1.936,5.567,1.936,5.567h2.178
	l1.694-1.21l1.21,1.694c0.242-2.421,3.389-4.115,3.389-4.115l2.905,4.357l2.178-0.726l-0.242-3.147
	c2.179-1.21,7.261,4.115,7.261,4.115l1.21-1.452l-2.42-2.905l3.389-3.631c0.242,2.905,4.841,7.988,4.841,7.988
	c-1.695-7.503,2.662-8.713,2.662-8.713c2.663,8.472,8.23,8.713,8.23,8.713c0.484-3.388,1.694-3.631,1.694-3.631
	c6.778,7.261,20.332,0.969,20.332,0.969l9.198,15.007c2.179-2.663,7.988-2.179,7.988-2.179l-1.21-4.115
	c16.459-5.325,21.784,4.115,21.784,4.115l3.147-4.599l1.936-0.242l0.242,3.631c5.567,3.873,17.912-0.725,17.912-0.725l-2.905-2.179
	c-1.21-2.904,35.823-2.421,35.823-2.421c0.242,1.694-1.453,2.904-1.453,2.904l-9.44,0.726c9.197,6.051,16.701-1.452,16.701-1.452
	l0.969-4.116l-3.147,0.726c1.453-3.631,5.325-2.421,5.325-2.421l-1.694,5.81c2.663,0.968,4.599-0.726,4.599-0.726l0.242-4.115h1.694
	l-0.969,3.388c12.829-3.873,22.027-2.178,22.027-2.178c1.21-5.81,7.019-4.6,7.019-4.6c8.473,6.535,18.88,2.179,18.88,2.179
	c21.542,10.65,33.161-0.242,33.161-0.242c4.841,6.535,4.598-0.484,4.598-0.484l6.294-0.243l0.968-1.937l-14.523-1.21
	C359.988,366.613,390.97,384.524,390.97,384.524z M283.864,81.48c11.739-3.751,17.67,0.726,17.67,0.726l16.823,12.344l-0.121,1.573
	l-2.542-0.725c0,0-2.178,1.089-1.209,4.841c0.968,3.752,1.936-0.485,1.936-0.485l-0.241-1.936l2.178-0.122l-7.745,49.741
	l-3.147,0.242l-2.057-2.663h-3.631c0,0,0.968-7.261-2.904-7.382c-3.873-0.121-1.816,2.421-1.816,2.421l3.025,1.453l-0.846,1.694
	L235.698,94.43C235.698,94.43,272.125,85.232,283.864,81.48z M104.749,331.395l-3.268-2.057c0,0-0.805,3.351-4.067,2.277
	c-1.094,0.361-1.863-0.946-1.863-0.946c0.699,0.472,1.312,0.765,1.863,0.946c0.697-0.23,1.525-1.134,2.373-3.488
	c0,0-0.847-1.937-2.057,0l-0.847,1.815l-0.242-3.509l-2.178,1.452l-1.695-0.242l-0.363,3.146l-31.95-23.72
	c0,0-4.599-1.694-0.968-12.708c3.631-11.013,23.237-53.129,23.237-53.129l75.519,72.977L104.749,331.395z M320.534,326.433
	c-48.41,3.146-57.365-18.154-57.365-18.154l-38.728-41.391l1.694-2.178l-4.115-3.873l0.242,3.147
	c-4.115-8.23-8.956-10.892-8.956-10.892l1.21,3.872c-5.567-4.598-3.873-9.923-3.873-9.923l-7.261-9.44
	c-5.809-3.147-1.694,1.694-1.694,1.694l5.567,6.293l-1.453,2.179c0,0-9.682-8.23-15.733-19.606c-6.051-11.376-1.452,1.21-1.452,1.21
	l-37.518-40.663l2.904,2.178c0,0,3.631,4.841,1.452-0.726c-2.178-5.567-9.198-4.599-9.198-4.599l-92.946-99.24
	c27.109-17.67,40.18-3.631,40.18-3.631l28.561,20.09l-1.452,1.694l6.293,6.294l1.452-0.726l-2.904-3.631l6.051,3.388l-1.452,2.42
	l1.21,1.21l2.178-1.694l2.179,2.178l3.873,0.242c-0.484,6.294,9.198,5.809,9.198,5.809L302.382,224.53l-1.938,2.179l4.116,3.388
	l-2.42-0.243l-7.019-2.904l-0.242,3.147l18.638,1.694l31.95,21.543C343.529,297.145,320.534,326.433,320.534,326.433z"/>
</svg>
