<?xml version="1.0" encoding="utf-8"?>
<!-- Generator: Adobe Illustrator 19.2.1, SVG Export Plug-In . SVG Version: 6.00 Build 0)  -->
<svg version="1.1" id="Layer_1" xmlns="http://www.w3.org/2000/svg" xmlns:xlink="http://www.w3.org/1999/xlink" x="0px" y="0px"
	 viewBox="0 0 426 452" enable-background="new 0 0 426 452" xml:space="preserve">
<path opacity="0.5" fill="#3A5765" d="M209.049,89.209V66.966h-24.328c0,0-14.365,1.622-14.365,13.207s0,46.34,0,46.34
	s1.158,7.183,7.183,13.902s22.011,22.011,22.011,22.011v203.663c0,0,1.854,13.67,11.122,18.304
	c9.268,4.634,16.451-17.377,16.451-17.377l-1.854-206.907l28.267-28.035c0,0,1.39-0.927,1.158-12.743
	c-0.232-11.817-0.463-39.852-1.39-45.876s-4.866-5.329-10.195-5.329c-5.329,0-29.194,0-29.194,0v22.243h0
	c6.515,0,11.911,5.059,12.331,11.561v0c0.429,6.648,0.341,13.319-0.262,19.954l-0.19,2.087c-0.572,6.296-5.58,11.275-11.879,11.811
	h0v113.069v44.486v44.486v30.584v7.646l0,0c-0.704,0.711-1.886,0.58-2.418-0.267l0,0c-0.842-1.34-1.294-2.889-1.303-4.472
	l-1.376-235.996c0,0-13.207-1.622-13.67-14.597c-0.242-6.778-0.231-14.062-0.166-19.474c0.088-7.282,6.437-12.912,13.673-12.084
	C208.785,89.177,208.916,89.193,209.049,89.209z"/>
<path opacity="0.5" fill="#3A5765" d="M193.062,216.707c0-9.152,0-31.343,0-31.343l0,0c-2.105,0-4.031-1.138-5.084-2.961
	c-1.696-2.934-5.176-7.276-11.598-9.319c-10.195-3.244-23.17-8.109-37.072-9.036c-13.902-0.927-27.804,3.707-27.804,3.707
	s-13.864-6.311-18.536-9.036c-3.475-2.027-2.549-23.633-2.549-23.633h4.634c0,0-1.158,13.902,0.927,15.524
	c2.085,1.622,3.475,6.951,3.475,6.951s2.78,0.927,4.402,0.232c1.622-0.695,2.549,3.707,2.549,3.707s3.244,0.463,3.244-1.622
	s4.866,0.927,3.707,2.085s1.854,1.39,3.244-0.232c1.39-1.622,0.463-7.414,0.463-7.414s2.317-2.317,2.78-3.939
	c0.463-1.622,0.927-24.328-0.927-27.109c-1.854-2.78-26.877-3.939-26.877-3.939s-20.621-0.232-24.097,2.085
	c-3.475,2.317-4.566,16.424-4.866,23.865c-0.354,8.804,0.53,22.649,1.622,23.633c8.931,8.048,46.34,28.267,49.583,27.804
	c3.244-0.463,13.439-7.646,28.731-6.488s22.706,4.402,27.34,11.122c2.923,4.238,4.002,10.781,4.401,15.034
	c0.237,2.526,2.21,4.543,4.735,4.798c2.665,0.269,6.129,0.47,9.295,0.191C191.207,221.161,193.062,219.137,193.062,216.707z"/>
<path opacity="0.5" fill="#3A5765" d="M193.062,234.021c-0.232-7.183-4.634-6.719-4.634-6.719s-38.462,0-39.157,0
	c-3.012,0-3.244,2.317-3.244,2.317s-0.463,30.121-0.695,35.218c-0.232,5.097,6.256,5.792,6.256,5.792l13.67,0.232
	c0,0,0,7.183,0.232,8.341c0.232,1.158,0.463,6.719-2.085,4.402c-2.549-2.317-16.585-11.695-24.328-15.756
	c-11.045-5.792-24.56-6.951-34.06-6.719c-9.5,0.232-20.389,5.097-27.34,13.207s-8.109,17.146-6.488,17.146
	c1.622,0,5.097,0.463,7.183,0.695c2.085,0.232,32.438,15.292,33.596,16.219c0.858,0.687,6.929,3.407,11.745,4.301
	c2.424,0.45,3.695-2.887,1.517-4.041c-0.018-0.01-0.037-0.019-0.055-0.029c-1.854-0.927-5.097-7.646-11.817-9.268
	c-6.719-1.622-24.56-10.195-24.56-10.195s3.244-3.707,20.158-5.792c16.914-2.085,28.731,3.707,34.523,9.5
	c5.792,5.792,26.414,25.023,31.279,27.34c4.866,2.317,9.036,3.012,9.036,3.012s3.707,3.244,6.488,3.475s2.78-4.402,2.78-4.402
	S193.294,241.203,193.062,234.021z M176.878,254.341c0.09,0.018,0.108,0.023,0.023,0.011
	C176.893,254.351,176.887,254.344,176.878,254.341c-1.199-0.233-16.733-2.846-17.702-1.553c-1.043,1.39,0-10.6,0-10.6
	s15.292,1.043,17.725,0.869C179.317,242.884,175.739,254.013,176.878,254.341z"/>
<path opacity="0.5" fill="#3A5765" d="M232.938,218.502c0-9.152,0-31.343,0-31.343l0,0c2.105,0,4.031-1.138,5.084-2.961
	c1.696-2.934,5.176-7.276,11.598-9.319c10.195-3.244,23.17-8.109,37.072-9.036c13.902-0.927,27.804,3.707,27.804,3.707
	s13.864-6.311,18.536-9.036c3.475-2.027,2.549-23.633,2.549-23.633h-4.634c0,0,1.158,13.902-0.927,15.524
	c-2.085,1.622-3.475,6.951-3.475,6.951s-2.78,0.927-4.402,0.232c-1.622-0.695-2.549,3.707-2.549,3.707s-3.244,0.463-3.244-1.622
	c0-2.085-4.866,0.927-3.707,2.085c1.158,1.158-1.854,1.39-3.244-0.232c-1.39-1.622-0.463-7.414-0.463-7.414s-2.317-2.317-2.78-3.939
	c-0.463-1.622-0.927-24.328,0.927-27.109c1.854-2.78,26.877-3.939,26.877-3.939s20.621-0.232,24.097,2.085
	c3.475,2.317,4.566,16.424,4.866,23.865c0.354,8.804-0.53,22.649-1.622,23.633c-8.931,8.048-46.34,28.267-49.583,27.804
	s-13.439-7.646-28.731-6.488s-22.706,4.402-27.34,11.122c-2.923,4.238-4.002,10.781-4.401,15.034
	c-0.237,2.526-2.21,4.543-4.735,4.798c-2.665,0.269-6.129,0.47-9.295,0.191C234.793,222.956,232.938,220.932,232.938,218.502z"/>
<path opacity="0.5" fill="#3A5765" d="M232.938,324.092c0,0,0,4.634,2.78,4.402s6.488-3.475,6.488-3.475s4.171-0.695,9.036-3.012
	c4.866-2.317,25.487-21.548,31.279-27.34c5.792-5.792,17.609-11.585,34.523-9.5c16.914,2.085,20.158,5.792,20.158,5.792
	s-17.841,8.573-24.56,10.195c-6.719,1.622-9.963,8.341-11.817,9.268c-0.018,0.009-0.037,0.019-0.055,0.029
	c-2.178,1.154-0.906,4.49,1.517,4.041c4.816-0.894,10.887-3.614,11.745-4.301c1.159-0.927,31.511-15.987,33.596-16.219
	c2.085-0.232,5.561-0.695,7.183-0.695c1.622,0,0.463-9.036-6.488-17.146c-6.951-8.109-17.841-12.975-27.34-13.207
	c-9.5-0.232-23.014,0.927-34.06,6.719c-7.743,4.061-21.78,13.439-24.328,15.756c-2.549,2.317-2.317-3.244-2.085-4.402
	c0.232-1.159,0.232-8.341,0.232-8.341l13.67-0.232c0,0,6.488-0.695,6.256-5.792c-0.232-5.097-0.695-35.218-0.695-35.218
	s-0.232-2.317-3.244-2.317c-0.695,0-39.157,0-39.157,0s-4.402-0.463-4.634,6.719C232.706,242.998,232.938,324.092,232.938,324.092z
	 M249.099,244.852c2.433,0.174,17.725-0.869,17.725-0.869s1.043,11.99,0,10.6c-0.969-1.293-16.503,1.32-17.702,1.553
	c-0.008,0.002-0.014,0.01-0.023,0.011c-0.085,0.012-0.068,0.007,0.023-0.011C250.261,255.808,246.683,244.679,249.099,244.852z"/>
</svg>
