<?xml version="1.0" encoding="utf-8"?>
<!-- Generator: Adobe Illustrator 19.2.1, SVG Export Plug-In . SVG Version: 6.00 Build 0)  -->
<svg version="1.1" id="Layer_1" xmlns="http://www.w3.org/2000/svg" xmlns:xlink="http://www.w3.org/1999/xlink" x="0px" y="0px"
	 viewBox="0 0 44 44" enable-background="new 0 0 44 44" xml:space="preserve">
<polygon fill="#727272" points="38.677,9.788 38.677,2.429 38.364,2.429 36.485,2.429 34.606,2.429 34.293,2.429 34.293,9.788 
	28.97,9.788 28.97,13.859 32.493,13.859 32.493,37.578 36.485,41.571 40.477,37.578 40.477,13.859 44,13.859 44,9.788 "/>
<polygon fill="#727272" points="18.788,7.283 18.788,9.475 12.838,9.475 12.838,7.283 10.646,7.283 8.454,7.283 8.454,9.475 
	2.505,9.475 2.505,7.283 0,7.283 0,30.119 10.646,41.571 21.293,30.119 21.293,7.283 "/>
</svg>
