<?xml version="1.0" encoding="utf-8"?>
<!-- Generator: Adobe Illustrator 19.2.1, SVG Export Plug-In . SVG Version: 6.00 Build 0)  -->
<svg version="1.1" id="Layer_1" xmlns="http://www.w3.org/2000/svg" xmlns:xlink="http://www.w3.org/1999/xlink" x="0px" y="0px"
	 viewBox="0 0 44 44" enable-background="new 0 0 44 44" xml:space="preserve">
<path fill="#DA7146" d="M22,0.5C10.126,0.5,0.5,10.126,0.5,22S10.126,43.5,22,43.5c11.875,0,21.5-9.626,21.5-21.5S33.874,0.5,22,0.5
	z M19.329,6.142h4.674V22h-4.674V6.142z M22,36.523c-8.021,0-14.522-6.502-14.522-14.523c0-3.945,1.575-7.52,4.127-10.137
	c0.905,0.798,1.926,1.489,3.066,2.048c-2.373,2.057-3.889,5.079-3.889,8.466c0,6.195,5.023,11.217,11.217,11.217
	c6.196,0,11.217-5.022,11.217-11.217c0-3.447-1.562-6.523-4.009-8.581c1.123-0.576,2.137-1.275,3.026-2.087
	c2.645,2.63,4.289,6.266,4.289,10.291C36.523,30.021,30.021,36.523,22,36.523z"/>
</svg>
