<?xml version="1.0" encoding="utf-8"?>
<!-- Generator: Adobe Illustrator 22.0.0, SVG Export Plug-In . SVG Version: 6.00 Build 0)  -->
<svg version="1.1" id="Слой_1" xmlns="http://www.w3.org/2000/svg" xmlns:xlink="http://www.w3.org/1999/xlink" x="0px" y="0px"
	 viewBox="0 0 2500 2500" style="enable-background:new 0 0 2500 2500;" xml:space="preserve">
<style type="text/css">
	.st0{fill:#FFFFFF;}
</style>
<g>
	<path class="st0" d="M433.2,1301.2c0-55.4,16.5-117.2,83.7-117.2c63.6,0,83.6,63.6,83.6,117.2c0,55.4-15.9,118.4-83.6,118.4
		C453.8,1419.6,433.2,1356.6,433.2,1301.2z M599.9,1194h-1.2c-17.1-35.3-54.2-48.9-91.9-48.9c-91.9,0-132.5,76.6-132.5,156.7
		c0,76,34.7,156.7,122.5,156.7c43,0,81.9-14.7,101.9-56h1.2v3l1.8,44.2h57.1c-1.2-17.1-3-34.8-3-52.4v-355.7h-56V1194z
		 M851.3,1145.1c56,0,119,23.6,114.9,90.7h-58.9c2.3-37.7-26.5-50.1-58.9-50.1c-30.1,0-54.2,14.1-54.2,47.1
		c0,33,50.7,35.3,71.9,41.8c50.1,16.5,107.8,22.4,107.8,89c0,72.4-70.7,94.8-131.3,94.8c-61.8,0-113.7-28.3-113.1-96.6h58.9
		c1.2,36.5,25.9,56,60.1,56c33,0,66.6-13,66.6-51.2c0-66-179.7-16.5-179.7-132C735.3,1172.8,797.7,1145.1,851.3,1145.1L851.3,1145.1
		z M1240,1196.3h1.2c17.7-37.1,54.2-51.3,84.2-51.3c56,0,89,18.9,104.3,55.4c21.2-36.5,54.8-55.4,98.4-55.4
		c68.4,0,110.1,43,110.1,96v208.5h-55.9v-175c0-40.6-5.9-86.6-71.3-86.6c-17.1,0-54.8,9.4-65.4,45.9c-7.7,27.1-5.9,56.6-5.9,63.6
		v152h-55.9v-175c0-51.2-11.8-86.6-65.4-86.6c-23,0-56,8.8-73,48.3c-6.5,15.3-4.1,54.2-4.1,61.3v152h-56V1154h54.8L1240,1196.3
		L1240,1196.3L1240,1196.3z M1906.2,1305.9c1.2,54.8-11.2,111.9-77.2,111.9c-33,0-58.3-18.3-58.3-54.8c0-43,45.4-55.4,79.5-57.1
		H1906.2L1906.2,1305.9z M1855.5,1267c-70.1,0-143.7,24.2-143.7,107.2c0,57.7,51.8,84.3,103.1,84.3c40.6,0,73.6-15.9,91.9-53h1.2
		c0.6,13.5,1.8,26.5,2.9,40.1c0.6,7.1,10.6,4.1,15.9,4.1h37.7c-1.5-20.8-2.3-41.6-2.4-62.4v-141.4c0-82.5-60.1-100.7-120.8-100.7
		c-58.3,0-108.9,23-111.9,87.8h58.9c0.6-30.7,27.1-47.1,55.4-47.1c59.5,0,62.4,30,62.4,81.3L1855.5,1267L1855.5,1267L1855.5,1267z
		 M2207.1,1298.2l116,151.4h-73l-84.2-118.4l-83.6,118.4h-64.8l117.2-154.9l-110.7-140.8h72.4l78.9,111.3l82.5-111.3h65.4
		L2207.1,1298.2L2207.1,1298.2z M43.1,1225.9c0-20.3,9.9-38.6,28.7-52.9c23.4-17.8,58.6-28,96.7-28c63.4,0,137.4,22,137.4,84.1
		c0,28.8-29.1,57.6-70.6,67.1l-0.8,0.2l0.1,3l0.8,0.1c45.6,6.9,76.2,36.7,76.2,72.3c0,52.7-58.6,86.7-149.5,86.7
		c-39.7,0-74.1-9.5-96.8-26.7c-18.7-14.2-28.5-33.1-28.5-54.8l0-2.3h63.3l-0.1,2.2c0,11.1,5.1,20.9,14.8,28.4
		c12.6,9.7,33,15.3,56,15.3c38.6,0,77.5-16.1,77.5-46.8c0-17.3-6.6-30.7-19.6-39.8c-17.5-12.4-47-18.7-90-16.8
		c-0.1,0-0.9,0.1-1.6,0.1v-38.3c0.8,0,1.6,0.1,1.6,0.1c21.9,1.1,62.2-1.4,85.7-17.8c12.1-8.3,18.2-19.9,18.2-34.4
		c0-28.7-23.6-43.3-70.2-43.3c-31.9,0-64.9,15.2-66.1,44.2l0,0.7H43.2C43.1,1227.2,43.1,1225.9,43.1,1225.9L43.1,1225.9z
		 M2393.8,1123.9h-12.6v-4.6h30.3v4.6h-12.6v32.8h-5.1L2393.8,1123.9L2393.8,1123.9z M2458.1,1123h-0.2l-12,33.7h-4.8l-11.9-33.7
		h-0.1v33.7h-5.1v-37.4h9.2l10.6,30.8h0.2l10.5-30.8h8.8v37.4h-5.1L2458.1,1123L2458.1,1123z"/>
</g>
</svg>
