<?xml version="1.0" encoding="utf-8"?>
<!-- Generator: Adobe Illustrator 19.2.1, SVG Export Plug-In . SVG Version: 6.00 Build 0)  -->
<svg version="1.1" id="Layer_1" xmlns="http://www.w3.org/2000/svg" xmlns:xlink="http://www.w3.org/1999/xlink" x="0px" y="0px"
	 viewBox="0 0 200 200" style="enable-background:new 0 0 200 200;" xml:space="preserve">
<style type="text/css">
	.st0{fill:none;stroke:#F28A12;stroke-width:5;stroke-miterlimit:10;}
</style>
<g>
	<path class="st0" d="M195,178c0,1.1-0.9,2-2,2H7c-1.1,0-2-0.9-2-2V59.6c0-1.1,0.9-2,2-2h186c1.1,0,2,0.9,2,2V178z"/>
</g>
<path class="st0" d="M115.1,108.6c0,7.5-6.1,13.6-13.6,13.6l0,0c-7.5,0-13.6-6.1-13.6-13.6l0,0c0-7.5,6.1-13.6,13.6-13.6l0,0
	C109,95.1,115.1,101.1,115.1,108.6L115.1,108.6z"/>
<path class="st0" d="M7.3,59.8c0,0,39.2,41.9,79.9,46.7"/>
<path class="st0" d="M192.7,59.8c0,0-39.2,42.7-79.9,47.5"/>
<g>
	<path class="st0" d="M58.4,57.7V22c0-1.1,0.9-2,2-2h82.5c1.1,0,2,0.9,2,2v35.6"/>
</g>
<g>
	<path class="st0" d="M71.7,57.7V34.9c0-0.5,0.5-1,1-1h56c0.6,0,1,0.5,1,1v22.8"/>
</g>
</svg>
