<?xml version="1.0" encoding="utf-8"?>
<!-- Generator: Adobe Illustrator 19.2.1, SVG Export Plug-In . SVG Version: 6.00 Build 0)  -->
<svg version="1.1" id="Layer_1" xmlns="http://www.w3.org/2000/svg" xmlns:xlink="http://www.w3.org/1999/xlink" x="0px" y="0px"
	 viewBox="0 0 200 200" style="enable-background:new 0 0 200 200;" xml:space="preserve">
<style type="text/css">
	.st0{fill:#F28A19;}
	.st1{fill:none;stroke:#F28A19;stroke-width:5;stroke-miterlimit:10;}
</style>
<path class="st0" d="M94.9,44.8c-0.8,0.8-2.4,0.5-3.6-0.7l0,0c-1.2-1.2-1.5-2.8-0.7-3.6l10.9-10.9c0.8-0.8,2.4-0.5,3.6,0.7l0,0
	c1.2,1.2,1.5,2.8,0.7,3.6L94.9,44.8z"/>
<path class="st0" d="M169.4,44.8c0.8,0.8,2.4,0.5,3.6-0.7l0,0c1.2-1.2,1.5-2.8,0.7-3.6l-10.9-10.9c-0.8-0.8-2.4-0.5-3.6,0.7l0,0
	c-1.2,1.2-1.5,2.8-0.7,3.6L169.4,44.8z"/>
<path class="st0" d="M163.8,31.8c0,1.5-1.2,2.7-2.6,2.7h-58c-1.4,0-2.6-1.2-2.6-2.7l0,0c0-1.5,1.2-2.7,2.6-2.7h58
	C162.7,29.1,163.8,30.3,163.8,31.8L163.8,31.8z"/>
<path class="st0" d="M25.5,35.2c0-1.5,1.2-2.7,2.7-2.7l0,0c1.5,0,2.7,1.2,2.7,2.7v7.4c0,1.5-1.2,2.7-2.7,2.7l0,0
	c-1.5,0-2.7-1.2-2.7-2.7V35.2z"/>
<path class="st0" d="M44.9,34.9c0-1.5,1.2-2.7,2.7-2.7l0,0c1.5,0,2.7,1.2,2.7,2.7v7.4c0,1.5-1.2,2.7-2.7,2.7l0,0
	c-1.5,0-2.7-1.2-2.7-2.7V34.9z"/>
<path class="st0" d="M25.5,34.8c0-1.4,1.2-2.6,2.8-2.6h19.2c1.5,0,2.8,1.2,2.8,2.6l0,0c0,1.4-1.2,2.6-2.8,2.6H28.3
	C26.7,37.4,25.5,36.2,25.5,34.8L25.5,34.8z"/>
<g>
	<path class="st1" d="M195,167.9c0,1.7-1.4,3-3,3H8c-1.7,0-3-1.3-3-3V46c0-1.7,1.3-3,3-3h184c1.6,0,3,1.3,3,3V167.9z"/>
</g>
<circle class="st1" cx="132" cy="107" r="45.9"/>
<circle class="st1" cx="132" cy="107" r="34.7"/>
<circle class="st1" cx="39.7" cy="76.8" r="11.3"/>
<path class="st0" d="M64.4,119.2c0,1.4-1.2,2.6-2.6,2.6H28.3c-1.4,0-2.6-1.2-2.6-2.6l0,0c0-1.4,1.2-2.6,2.6-2.6h33.5
	C63.3,116.7,64.4,117.8,64.4,119.2L64.4,119.2z"/>
<path class="st0" d="M72.1,131c0,1.4-1.4,2.6-3.1,2.6H28.8c-1.7,0-3.1-1.2-3.1-2.6l0,0c0-1.4,1.4-2.6,3.1-2.6H69
	C70.7,128.4,72.1,129.5,72.1,131L72.1,131z"/>
<path class="st0" d="M81.1,143.3c0,1.4-1.7,2.6-3.7,2.6H29.2c-2.1,0-3.7-1.2-3.7-2.6l0,0c0-1.4,1.7-2.6,3.7-2.6h48.2
	C79.4,140.8,81.1,141.9,81.1,143.3L81.1,143.3z"/>
<path class="st1" d="M20.3,68.4c3.2-7.5,10.7-12.7,19.4-12.7c8.7,0,16.2,5.2,19.4,12.7"/>
</svg>
