<?xml version="1.0" encoding="utf-8"?>
<!-- Generator: Adobe Illustrator 19.2.1, SVG Export Plug-In . SVG Version: 6.00 Build 0)  -->
<svg version="1.1" id="Layer_1" xmlns="http://www.w3.org/2000/svg" xmlns:xlink="http://www.w3.org/1999/xlink" x="0px" y="0px"
	 viewBox="0 0 200 200" style="enable-background:new 0 0 200 200;" xml:space="preserve">
<style type="text/css">
	.st0{fill:none;stroke:#F28A19;stroke-width:5;stroke-miterlimit:10;}
</style>
<path class="st0" d="M194,122.7c-2.2-19.3-21.5-34.2-45-34.1c-2.3-25.6-26.3-45.4-55.1-45.1C67.7,44,46.1,60.8,41.1,83.1
	C20.8,83.7,4.7,100,5,120c0.2,15.1,9.8,28,23.2,33.3l5.7,1c0,0,97.8,5.2,141.4-0.7h0.1c3.3-0.5,6.3-1,8.9-1.6"/>
<path class="st0" d="M36.7,83.3c0,0,35-2.4,33.9,20.8"/>
<path class="st0" d="M150.8,88.3c0,0-32.2-0.5-30.9,26"/>
<path class="st0" d="M175.2,153.6c0.1,0,0.2,0,0.2,0"/>
<path class="st0" d="M193,117.8c0,0,8.5,27.6-10,34.5"/>
</svg>
