<?xml version="1.0" encoding="utf-8"?>
<!-- Generator: Adobe Illustrator 19.2.1, SVG Export Plug-In . SVG Version: 6.00 Build 0)  -->
<svg version="1.1" id="Layer_1" xmlns="http://www.w3.org/2000/svg" xmlns:xlink="http://www.w3.org/1999/xlink" x="0px" y="0px"
	 viewBox="0 0 200 200" style="enable-background:new 0 0 200 200;" xml:space="preserve">
<style type="text/css">
	.st0{fill:none;stroke:#F28A12;stroke-width:5;stroke-miterlimit:10;}
	.st1{fill:#F28A19;}
</style>
<g>
	<path class="st0" d="M195,140.3c0,0.6-0.4,1-1,1H6c-0.6,0-1-0.4-1-1v-31.6c0-0.6,0.4-1,1-1h188c0.6,0,1,0.4,1,1V140.3z"/>
</g>
<line class="st0" x1="16.3" y1="109.3" x2="16.3" y2="116.8"/>
<line class="st0" x1="57.3" y1="109.2" x2="57.3" y2="123.4"/>
<line class="st0" x1="32.9" y1="108.9" x2="32.9" y2="123.3"/>
<line class="st0" x1="24.5" y1="109.3" x2="24.5" y2="116.8"/>
<line class="st0" x1="41" y1="109.6" x2="41" y2="117"/>
<line class="st0" x1="49.3" y1="109.6" x2="49.3" y2="117"/>
<line class="st0" x1="65.3" y1="109.6" x2="65.3" y2="117"/>
<line class="st0" x1="73" y1="109.6" x2="73" y2="117"/>
<line class="st0" x1="80.8" y1="108.9" x2="80.8" y2="123.2"/>
<line class="st0" x1="89.3" y1="109.4" x2="89.3" y2="116.8"/>
<line class="st0" x1="97.6" y1="109.3" x2="97.6" y2="116.8"/>
<line class="st0" x1="106" y1="109" x2="106" y2="123.1"/>
<line class="st0" x1="114.1" y1="109.2" x2="114.1" y2="116.7"/>
<line class="st0" x1="122.4" y1="109.2" x2="122.4" y2="116.7"/>
<line class="st0" x1="130.7" y1="109.3" x2="130.7" y2="123.2"/>
<line class="st0" x1="138.9" y1="109.5" x2="138.9" y2="117"/>
<line class="st0" x1="147" y1="109.4" x2="147" y2="116.9"/>
<line class="st0" x1="164.8" y1="109.8" x2="164.8" y2="117.2"/>
<line class="st0" x1="172.9" y1="109.7" x2="172.9" y2="117.2"/>
<line class="st0" x1="155.8" y1="109.3" x2="155.8" y2="123.2"/>
<line class="st0" x1="181.7" y1="109.3" x2="181.7" y2="123.2"/>
<polyline class="st0" points="47.5,58.7 20.4,73.1 47.5,88.8 "/>
<path class="st0" d="M43,80.6"/>
<polyline class="st0" points="42.6,61.8 48.1,67.3 43.6,71.8 "/>
<polyline class="st0" points="43.7,75.1 48.1,79.5 42.8,84.8 "/>
<polygon class="st1" points="39,73.3 42.2,70.2 45.2,73.3 42,76.4 "/>
<polygon class="st1" points="39,73.3 42.2,70.2 45.2,73.3 42,76.4 "/>
<polygon class="st1" points="40.9,75.1 44,72.3 47,75.5 43.8,78.4 "/>
<path class="st0" d="M153.9,88.5h-11.7V58.8h11.7c9.3,0,16.7,6.6,16.7,14.8c0,4.1-1.9,7.8-4.9,10.5
	C162.7,86.9,158.5,88.5,153.9,88.5z"/>
<line class="st0" x1="133.6" y1="59.2" x2="133.6" y2="86.6"/>
<line class="st0" x1="125.4" y1="59.6" x2="125.4" y2="87"/>
<line class="st0" x1="32.8" y1="66.8" x2="32.8" y2="79.6"/>
<line class="st0" x1="46.5" y1="58.9" x2="145" y2="58.9"/>
<line class="st0" x1="46.3" y1="88.6" x2="140.3" y2="88.6"/>
</svg>
