<?xml version="1.0" encoding="utf-8"?>
<!-- Generator: Adobe Illustrator 19.2.1, SVG Export Plug-In . SVG Version: 6.00 Build 0)  -->
<svg version="1.1" id="Layer_1" xmlns="http://www.w3.org/2000/svg" xmlns:xlink="http://www.w3.org/1999/xlink" x="0px" y="0px"
	 viewBox="0 0 200 200" style="enable-background:new 0 0 200 200;" xml:space="preserve">
<style type="text/css">
	.st0{fill:none;stroke:#F28A19;stroke-width:5;stroke-miterlimit:10;}
</style>
<path class="st0" d="M161.5,57.5c0,29-23.5,52.5-52.5,52.5l0,0c-29,0-52.5-23.5-52.5-52.5l0,0C56.4,28.5,79.9,5,109,5l0,0
	C138,5,161.5,28.5,161.5,57.5L161.5,57.5z"/>
<polyline class="st0" points="101.3,109.5 80.5,191.3 65.4,167.6 38.5,174.7 78.7,101.8 82.8,103.1 "/>
<polyline class="st0" points="128.4,110.1 127.2,106.8 127.5,106.8 150,188.6 125.2,175.5 105.3,195 101.3,109.5 112.8,109.9 "/>
<g>
	<path class="st0" d="M107.5,35.1c0.2-0.5,0.6-0.5,0.9,0l5.7,11.5c0.2,0.5,0.9,1,1.4,1l12.7,1.8c0.5,0.1,0.7,0.5,0.3,0.8l-9.2,9
		c-0.4,0.4-0.6,1.1-0.5,1.7l2.2,12.7c0.1,0.5-0.2,0.8-0.7,0.5l-11.4-6c-0.5-0.3-1.3-0.3-1.8,0l-11.4,6c-0.5,0.3-0.8,0-0.7-0.5
		L97.2,61c0.1-0.5-0.2-1.3-0.5-1.7l-9.2-9c-0.4-0.4-0.3-0.8,0.3-0.8l12.7-1.8c0.5-0.1,1.2-0.5,1.4-1L107.5,35.1z"/>
</g>
<circle class="st0" cx="108.7" cy="57.1" r="41.3"/>
<line class="st0" x1="63.7" y1="154.9" x2="81.8" y2="118.2"/>
</svg>
