<?xml version="1.0" encoding="utf-8"?>
<!-- Generator: Adobe Illustrator 19.2.1, SVG Export Plug-In . SVG Version: 6.00 Build 0)  -->
<svg version="1.1" id="Layer_1" xmlns="http://www.w3.org/2000/svg" xmlns:xlink="http://www.w3.org/1999/xlink" x="0px" y="0px"
	 viewBox="0 0 200 200" style="enable-background:new 0 0 200 200;" xml:space="preserve">
<style type="text/css">
	.st0{fill:none;stroke:#F18918;stroke-width:5;stroke-miterlimit:10;}
</style>
<path class="st0" d="M47.9,176.4c0,10.3-8.3,18.6-18.6,18.6l0,0c-10.3,0-18.6-8.3-18.6-18.6l0,0c0-10.3,8.3-18.6,18.6-18.6l0,0
	C39.6,157.8,47.9,166.1,47.9,176.4L47.9,176.4z"/>
<path class="st0" d="M118.5,176.4c0,10.3-8.3,18.6-18.6,18.6l0,0c-10.3,0-18.6-8.3-18.6-18.6l0,0c0-10.3,8.3-18.6,18.6-18.6l0,0
	C110.2,157.8,118.5,166.1,118.5,176.4L118.5,176.4z"/>
<path class="st0" d="M189.3,176.1c0,10.3-8.3,18.6-18.6,18.6l0,0c-10.3,0-18.6-8.3-18.6-18.6l0,0c0-10.3,8.3-18.6,18.6-18.6l0,0
	C181,157.4,189.3,165.8,189.3,176.1L189.3,176.1z"/>
<path class="st0" d="M118.2,23.6c0,10.3-8.3,18.6-18.6,18.6l0,0c-10.3,0-18.6-8.3-18.6-18.6l0,0C80.9,13.3,89.3,5,99.6,5l0,0
	C109.8,5,118.2,13.3,118.2,23.6L118.2,23.6z"/>
<line class="st0" x1="100.3" y1="155.6" x2="100.3" y2="40.3"/>
<line class="st0" x1="36.2" y1="159" x2="101.2" y2="94"/>
<line class="st0" x1="99.5" y1="94.5" x2="164.2" y2="159.2"/>
</svg>
