<?xml version="1.0" encoding="utf-8"?>
<!-- Generator: Adobe Illustrator 19.2.1, SVG Export Plug-In . SVG Version: 6.00 Build 0)  -->
<svg version="1.1" xmlns="http://www.w3.org/2000/svg" xmlns:xlink="http://www.w3.org/1999/xlink" x="0px" y="0px"
	 viewBox="0 0 100 100" style="enable-background:new 0 0 100 100;" xml:space="preserve">
<style type="text/css">
	.st0{fill:none;stroke:#FFFFFF;stroke-width:2;stroke-miterlimit:10;}
	.st1{fill:#FFFFFF;}
</style>
<g id="Layer_3">
	<g>
		<rect x="1" y="1" class="st0" width="98" height="98"/>
		<g>
			<path class="st1" d="M43.1,30.9l15.1,13.7c0,0,0.4,0.3,0.4-0.2v-13c0,0,0.1-0.3-0.2-0.5c-0.3-0.1-7.4-3.5-15.3-0.5
				C43.1,30.5,42.8,30.6,43.1,30.9z"/>
			<path class="st1" d="M40.8,31.7l7.4,6.8c0,0,0.2,0.2,0,0.4L30.3,55.1c0,0-0.3,0.3-0.4-0.1c0,0-4.7-14.1,10.2-23.3
				C40.2,31.7,40.5,31.5,40.8,31.7z"/>
			<path class="st1" d="M30.9,57.5l8.1-7.3c0,0,0.3-0.2,0.3,0.1v17.1c0,0-0.1,0.2-0.4,0c0,0-5.2-2.8-8-9.4
				C30.9,58,30.8,57.6,30.9,57.5z"/>
			<path class="st1" d="M41.5,59.4c0,0,0-0.3,0.4-0.3h26.4c0,0,0.4-0.1,0.2,0.3c0,0-2.5,5.9-9.5,9.3c-7.1,3.4-13.7,1.8-17.2,0.3
				c0,0-0.2-0.1-0.2-0.5V59.4z"/>
			<path class="st1" d="M61,56.9h8.2c0,0,0.2,0,0.4-0.3c0.1-0.3,1.1-2.7,1.1-7.1c0-4.4-1.8-11.6-9.4-16.9c0,0-0.5-0.4-0.6,0v23.9
				C60.8,56.5,60.8,56.9,61,56.9z"/>
		</g>
	</g>
</g>
<g id="Layer_2">
</g>
<g id="Layer_1">
</g>
</svg>
