<?xml version="1.0" encoding="utf-8"?>
<!-- Generator: Adobe Illustrator 19.2.1, SVG Export Plug-In . SVG Version: 6.00 Build 0)  -->
<svg version="1.1" xmlns="http://www.w3.org/2000/svg" xmlns:xlink="http://www.w3.org/1999/xlink" x="0px" y="0px"
	 viewBox="0 0 100 100" style="enable-background:new 0 0 100 100;" xml:space="preserve">
<style type="text/css">
	.st0{fill:none;stroke:#FFFFFF;stroke-width:2;stroke-miterlimit:10;}
	.st1{fill:#FFFFFF;}
</style>
<g id="Layer_2">
</g>
<g id="Layer_1">
	<g>
		<rect x="1" y="1" class="st0" width="98" height="98"/>
		<path class="st1" d="M30.9,33.6c0,0,6.8,9.1,18.7,9.7c0,0-1.6-5.3,3.3-9.4c4.9-4.1,11-0.6,12.2,0.9c0,0,3.5-0.5,5.9-2.2
			c0,0-0.8,3.1-3.7,5c0,0,3.4-0.5,5-1.4c0,0-1.7,2.7-4.6,4.7c0,0,1.2,11.3-8.5,20.6c-9.7,9.3-25.7,7.4-31.4,2.5
			c0,0,7.8,0.9,13.3-3.8c0,0-6.5-0.1-8.4-6.2c0,0,3.3,0.3,3.8-0.4c0,0-7-1.7-7.1-9c0,0,2.1,1.1,4.1,1.1
			C33.5,45.7,26.8,40.9,30.9,33.6z"/>
	</g>
</g>
</svg>
