<?xml version="1.0" encoding="utf-8"?>
<!-- Generator: Adobe Illustrator 18.1.1, SVG Export Plug-In . SVG Version: 6.00 Build 0)  -->
<svg version="1.1" id="adaptive" xmlns="http://www.w3.org/2000/svg" xmlns:xlink="http://www.w3.org/1999/xlink" x="0px" y="0px"
	 viewBox="0 0 240 240" enable-background="new 0 0 240 240" xml:space="preserve">
<g id="pc">
	<path fill="#202021" d="M145,128.5v-12h-25H95v12c0,0.4-0.2,0.7-0.6,0.8l-14.5,4.3c-0.9,0.3-0.7,1.7,0.2,1.7H120h39.9
		c0.9,0,1.1-1.4,0.2-1.7l-14.5-4.3C145.2,129.2,145,128.9,145,128.5z"/>
	<path fill="#202021" d="M236,117.8H4c-2.2,0-4-1.8-4-4V4c0-2.2,1.8-4,4-4h232c2.2,0,4,1.8,4,4v109.8C240,116,238.2,117.8,236,117.8
		z"/>
	<rect x="11" y="12.3" fill="#FFFFFF" width="218" height="93.3"/>
	<rect x="16" y="16.4" fill="#946CAC" width="208" height="32.7"/>
	<rect x="16" y="53.2" fill="#F6A009" width="62" height="24.5"/>
	<rect x="162" y="53.2" fill="#3E86C7" width="62" height="24.5"/>
	<rect x="89" y="53.2" fill="#C3D100" width="62" height="24.5"/>
	<rect x="16" y="80.2" fill="#010202" width="62" height="3.3"/>
	<rect x="16" y="85.9" fill="#010202" width="53" height="3.3"/>
	<rect x="16" y="92" fill="#010202" width="53" height="3.3"/>
	<rect x="16" y="98.2" fill="#010202" width="62" height="3.3"/>
	<rect x="89" y="80.2" fill="#010202" width="62" height="3.3"/>
	<rect x="89" y="85.9" fill="#010202" width="62" height="3.3"/>
	<rect x="89" y="92" fill="#010202" width="45.7" height="3.3"/>
	<rect x="89" y="98.2" fill="#010202" width="62" height="3.3"/>
	<rect x="162" y="80.2" fill="#010202" width="62" height="3.3"/>
	<rect x="162" y="85.9" fill="#010202" width="53.3" height="3.3"/>
	<rect x="162" y="92" fill="#010202" width="62" height="3.3"/>
	<rect x="162" y="98.2" fill="#010202" width="62" height="3.3"/>
	<ellipse fill="none" stroke="#FFFFFF" stroke-miterlimit="10" cx="120" cy="112.2" rx="3.5" ry="3.7"/>
</g>
<g id="tablet">
	<path fill="#202021" d="M20,236v-90.1c0-2.2,1.8-4,4-4h72c2.2,0,4,1.8,4,4V236c0,2.2-1.8,4-4,4H24C21.8,240,20,238.2,20,236z"/>
	<rect x="27.2" y="148.7" fill="#FFFFFF" width="65.6" height="84.4"/>
	<rect x="29.5" y="150.9" fill="#946CAC" width="61.1" height="18"/>
	<rect x="29.5" y="173.4" fill="#F6A009" width="29.6" height="13.5"/>
	<rect x="60.9" y="173.4" fill="#C3D100" width="29.6" height="13.5"/>
	<rect x="29.5" y="188.2" fill="#010202" width="29.6" height="1.8"/>
	<rect x="29.5" y="191.3" fill="#010202" width="25.3" height="1.8"/>
	<rect x="29.5" y="194.7" fill="#010202" width="25.3" height="1.8"/>
	<rect x="29.5" y="198.1" fill="#010202" width="29.6" height="1.8"/>
	<rect x="61" y="188.2" fill="#010202" width="29.6" height="1.8"/>
	<rect x="61" y="191.3" fill="#010202" width="29.6" height="1.8"/>
	<rect x="61" y="194.7" fill="#010202" width="21.8" height="1.8"/>
	<rect x="61" y="198.1" fill="#010202" width="29.6" height="1.8"/>
	<rect x="29.5" y="204.4" fill="#3E86C7" width="29.6" height="13.5"/>
	<rect x="29.5" y="219.2" fill="#010202" width="29.6" height="1.8"/>
	<rect x="29.5" y="222.3" fill="#010202" width="25.5" height="1.8"/>
	<rect x="29.5" y="225.7" fill="#010202" width="29.6" height="1.8"/>
	<rect x="29.5" y="229.1" fill="#010202" width="29.6" height="1.8"/>
	<circle fill="none" stroke="#FFFFFF" stroke-width="0.5" stroke-miterlimit="10" cx="60" cy="145.2" r="2"/>
</g>
<g id="mobile">
	<path fill="#202021" d="M180,236v-60.6c0-2.2,1.8-4,4-4h32c2.2,0,4,1.8,4,4V236c0,2.2-1.8,4-4,4h-32C181.8,240,180,238.2,180,236z"
		/>
	<rect x="183.4" y="176.2" fill="#FFFFFF" width="33.1" height="54.3"/>
	<rect x="184.9" y="177.5" fill="#946CAC" width="30.3" height="11.4"/>
	<rect x="184.9" y="190.4" fill="#F6A009" width="30.3" height="6"/>
	<rect x="184.9" y="197.3" fill="#010202" width="30.3" height="1.1"/>
	<rect x="184.9" y="199.3" fill="#010202" width="25.9" height="1.1"/>
	<rect x="184.9" y="201.4" fill="#010202" width="25.9" height="1.1"/>
	<rect x="184.9" y="203.5" fill="#010202" width="30.3" height="1.1"/>
	<rect x="184.9" y="206" fill="#C3D100" width="30.3" height="6"/>
	<rect x="184.9" y="212.8" fill="#010202" width="30.3" height="1.1"/>
	<rect x="184.9" y="214.8" fill="#010202" width="30.3" height="1.1"/>
	<rect x="184.9" y="217" fill="#010202" width="22.3" height="1.1"/>
	<rect x="184.9" y="219.1" fill="#010202" width="30.3" height="1.1"/>
	<rect x="184.9" y="221.6" fill="#3E86C7" width="30.3" height="6"/>
	<rect x="184.9" y="228.5" fill="#010202" width="27.3" height="1.1"/>
	<circle fill="none" stroke="#FFFFFF" stroke-width="0.5" stroke-miterlimit="10" cx="200" cy="235.5" r="2.2"/>
</g>
</svg>
