<?xml version="1.0" encoding="utf-8"?>
<!-- Generator: Adobe Illustrator 18.1.1, SVG Export Plug-In . SVG Version: 6.00 Build 0)  -->
<svg version="1.1" xmlns="http://www.w3.org/2000/svg" xmlns:xlink="http://www.w3.org/1999/xlink" x="0px" y="0px"
	 viewBox="0 0 240 240" enable-background="new 0 0 240 240" xml:space="preserve">
<g id="Layer_1">
</g>
<g id="Layer_2">
	<g id="pc">
		<polygon fill="#202021" points="194.6,139.2 108.3,162.3 54.6,131.3 140.9,108.2 		"/>
		<polygon fill="#FFFFFF" points="185.1,137 106.7,158 64.2,133.5 142.6,112.5 		"/>
		<polygon fill="#946CAC" points="157.5,122.6 82.7,142.7 67.8,134.1 142.6,114 		"/>
		<polygon fill="#F6A009" points="118.1,144.3 95.8,150.2 84.6,143.8 106.9,137.8 		"/>
		<polygon fill="#3E86C7" points="170.6,130.2 148.3,136.2 137.1,129.7 159.4,123.7 		"/>
		<polygon fill="#C3D100" points="144.3,137.2 122,143.2 110.9,136.7 133.2,130.8 		"/>
		<polygon fill="#010202" points="120.7,145.8 98.4,151.7 96.9,150.9 119.2,144.9 		"/>
		<polygon fill="#010202" points="120.1,148.1 101,153.2 99.5,152.4 118.6,147.3 		"/>
		<polygon fill="#010202" points="122.9,149.7 103.8,154.9 102.3,154 121.4,148.9 		"/>
		<polygon fill="#010202" points="128.9,150.5 106.6,156.5 105.1,155.6 127.4,149.6 		"/>
		<polygon fill="#010202" points="147,138.7 124.7,144.7 123.2,143.8 145.5,137.9 		"/>
		<polygon fill="#010202" points="149.6,140.2 127.3,146.2 125.8,145.3 148.1,139.4 		"/>
		<polygon fill="#010202" points="146.5,143.4 130.1,147.8 128.6,147 145,142.6 		"/>
		<polygon fill="#010202" points="155.2,143.5 132.9,149.4 131.4,148.6 153.7,142.6 		"/>
		<polygon fill="#010202" points="173.2,131.7 150.9,137.7 149.4,136.8 171.7,130.8 		"/>
		<polygon fill="#010202" points="172.7,134 153.5,139.2 152,138.3 171.2,133.2 		"/>
		<polygon fill="#010202" points="178.6,134.8 156.3,140.8 154.8,139.9 177.1,134 		"/>
		<polygon fill="#010202" points="181.4,136.4 159.1,142.4 157.6,141.5 179.9,135.6 		"/>
	</g>
	<g id="pc_1_">
		<polygon fill="#202021" points="191.6,131.3 105.3,154.4 51.6,123.4 137.9,100.2 		"/>
		<polygon fill="#FFFFFF" points="182.1,129.1 103.7,150.1 61.2,125.5 139.6,104.5 		"/>
		<polygon fill="#946CAC" points="154.6,114.7 79.8,134.7 64.8,126.1 139.6,106.1 		"/>
		<polygon fill="#F6A009" points="115.1,136.3 92.8,142.3 81.6,135.8 103.9,129.9 		"/>
		<polygon fill="#3E86C7" points="167.6,122.2 145.3,128.2 134.1,121.8 156.4,115.8 		"/>
		<polygon fill="#C3D100" points="141.4,129.3 119.1,135.3 107.9,128.8 130.2,122.8 		"/>
		<polygon fill="#010202" points="117.7,137.8 95.4,143.8 93.9,142.9 116.2,137 		"/>
		<polygon fill="#010202" points="117.1,140.2 98,145.3 96.5,144.4 115.6,139.3 		"/>
		<polygon fill="#010202" points="119.9,141.8 100.8,146.9 99.3,146.1 118.4,140.9 		"/>
		<polygon fill="#010202" points="125.9,142.6 103.6,148.5 102.1,147.7 124.4,141.7 		"/>
		<polygon fill="#010202" points="144,130.8 121.7,136.8 120.2,135.9 142.5,129.9 		"/>
		<polygon fill="#010202" points="146.6,132.3 124.3,138.3 122.8,137.4 145.1,131.4 		"/>
		<polygon fill="#010202" points="143.5,135.5 127.1,139.9 125.6,139 142,134.6 		"/>
		<polygon fill="#010202" points="152.2,135.5 129.9,141.5 128.4,140.6 150.7,134.7 		"/>
		<polygon fill="#010202" points="170.2,123.8 147.9,129.7 146.4,128.9 168.7,122.9 		"/>
		<polygon fill="#010202" points="169.7,126.1 150.5,131.2 149,130.4 168.2,125.2 		"/>
		<polygon fill="#010202" points="175.6,126.9 153.3,132.8 151.8,132 174.1,126 		"/>
		<polygon fill="#010202" points="178.4,128.5 156.1,134.5 154.6,133.6 176.9,127.6 		"/>
	</g>
	<path fill="#202020" d="M68.6,219.7h12.1c0.1-0.8,0.1-1.7,0.1-2.6c0-4.1-1.1-8-3-11.3c2-5.3,1.9-9.8-0.7-12.5
		c-2.5-2.5-9.4-2.1-17.1,1.3c-0.6,0-1.1-0.1-1.7-0.1c-10.6,0-19.5,7.3-21.9,17.1c3.3-4.3,6.8-7.3,11.5-9.6c-0.4,0.4-2.9,2.9-3.3,3.3
		c-12.3,12.3-16.2,28.4-12,32.6c3.2,3.2,8.9,2.6,15.5-0.6c3.1,1.6,6.6,2.4,10.2,2.4c9.9,0,18.3-6.4,21.4-15.3H67.4
		c-1.7,3.1-5,5.2-8.7,5.2s-7.1-2.1-8.7-5.2c-0.7-1.4-1.2-3-1.2-4.7v0L68.6,219.7L68.6,219.7z M48.8,213.7c0.3-5,4.4-9,9.5-9
		s9.2,4,9.5,9H48.8L48.8,213.7z M77,195.8c1.7,1.7,1.7,4.9,0.2,8.9c-2.5-3.9-6.2-6.9-10.5-8.6C71.3,194.1,75.1,193.9,77,195.8z
		 M35.7,237.1c-2.2-2.2-1.5-6.8,1.3-12.4c1.8,4.9,5.2,9.1,9.6,11.8C41.7,238.7,37.7,239.1,35.7,237.1L35.7,237.1z"/>
	<path fill="#202020" d="M187,193.2c-1.2,0-2.3,0.1-3.5,0.3c0,0,0-0.1,0-0.1c0.6-0.5,1-1.2,0.8-1.8c-0.2-0.9-1.1-1.4-2.3-1.4
		c-0.3,0-0.5,0-0.8,0.1c-1.5,0.3-2.4,1.4-2.2,2.5c0.1,0.7,0.7,1.1,1.5,1.3c0,0,0,0.1,0,0.1c-9.8,2.8-17,11.8-17,22.5
		c0,12.9,10.5,23.4,23.4,23.4s23.4-10.5,23.4-23.4C210.5,203.7,200,193.2,187,193.2z M179.9,192.5c-0.1-0.6,0.6-1.3,1.6-1.5
		c0.2,0,0.4-0.1,0.6-0.1c0.8,0,1.4,0.3,1.5,0.8c0.1,0.4-0.2,0.8-0.6,1.1c-0.3-0.2-0.8-0.3-1.2-0.3c-0.4,0.1-0.8,0.4-1,0.7
		C180.3,193.1,179.9,192.8,179.9,192.5L179.9,192.5z M199.6,229.2c-2.1,2.1-4.7,3.7-7.6,4.5l-2.1-3.4l-0.5,3.9
		c-0.8,0.1-1.6,0.2-2.4,0.2c-4.7,0-9.2-1.8-12.6-5.2c-2.1-2.1-3.7-4.7-4.5-7.6l3.4-2.1l-3.9-0.5c-0.1-0.8-0.2-1.6-0.2-2.4
		c0-4.7,1.8-9.2,5.2-12.6c2.1-2.1,4.7-3.7,7.6-4.5l2.1,3.4l0.5-3.9c0.8-0.1,1.6-0.2,2.4-0.2c4.7,0,9.2,1.8,12.6,5.2
		c2.1,2.1,3.7,4.7,4.5,7.6l-3.4,2.1l3.9,0.5c0.1,0.8,0.2,1.6,0.2,2.4C204.8,221.4,203,225.9,199.6,229.2L199.6,229.2z M199.2,204.5
		l-9.6,7.3c-0.7-0.4-1.5-0.6-2.3-0.6l-2.5-5.2l-0.2,5.8c-0.6,0.3-1.2,0.8-1.7,1.3l-3.1-1.1l2.3,2.4c-0.3,0.7-0.5,1.4-0.5,2.1
		l-5.2,2.5l5.8,0.1c0,0,0,0.1,0.1,0.1l-7.3,9.6l9.6-7.3c0.7,0.4,1.5,0.6,2.3,0.6l2.5,5.2l0.1-5.8c0.6-0.3,1.2-0.8,1.7-1.3l3.1,1.1
		L192,219c0.3-0.7,0.5-1.4,0.5-2.1l5.2-2.5l-5.8-0.1c0,0,0-0.1-0.1-0.1L199.2,204.5L199.2,204.5z M187,211.8 M186.1,212.1
		c0.3-0.1,0.7-0.1,1-0.1c0.2,0,0.4,0,0.6,0l0,0l0,0c0.4,0.1,0.8,0.2,1.2,0.3l-3.5,2.7l-2.7,3.5c-0.1-0.3-0.2-0.6-0.3-0.9
		C181.9,215.1,183.5,212.6,186.1,212.1L186.1,212.1z M189.5,220.7L189.5,220.7L189.5,220.7c-0.4,0.3-0.9,0.5-1.5,0.6
		c-0.3,0.1-0.7,0.1-1,0.1c-0.2,0-0.4,0-0.6,0l0,0c-0.4-0.1-0.8-0.2-1.2-0.3l3.5-2.7l2.7-3.5c0.1,0.3,0.2,0.6,0.3,0.9
		C192.1,217.7,191.1,219.7,189.5,220.7L189.5,220.7z"/>
	<path fill="#202020" d="M13.5,103.6L6.3,91.2c4.6-5.7,11.6-9.4,19.5-9.4C35,81.8,43,86.7,47.4,94H27c-0.4,0-0.7,0-1.1,0
		C19.9,94,14.9,98.1,13.5,103.6L13.5,103.6z M34.8,97.6h14.3c1.1,2.8,1.7,5.9,1.7,9.1c0,13.7-11,24.8-24.7,25l10.2-17.7
		c1.4-2.1,2.3-4.6,2.3-7.3C38.7,103.2,37.2,100,34.8,97.6L34.8,97.6z M16.8,106.8c0-5,4.1-9.1,9.1-9.1s9.1,4.1,9.1,9.1
		s-4.1,9.1-9.1,9.1S16.8,111.8,16.8,106.8z M29.3,119.1l-7.2,12.4c-12-1.8-21.3-12.2-21.3-24.7c0-4.5,1.2-8.6,3.2-12.3l10.2,17.7
		c2,4.4,6.5,7.4,11.6,7.4C27.1,119.6,28.2,119.4,29.3,119.1L29.3,119.1z"/>
	<path fill="#202020" d="M239.9,98.1l-0.6,3.7c0,0-0.8-6.9-1.8-9.4c-1.6-3.9-2.2-3.9-2.3-3.9c1,2.6,0.9,4.1,0.9,4.1s-1.8-5-6.7-6.6
		c-5.4-1.8-8.3-1.3-8.7-1.2c-0.1,0-0.1,0-0.1,0c0,0,0.1,0,0.1,0c0,0,0,0,0,0c0,0,6,1,7,2.5c0,0-2.5,0-5,0.7
		c-0.1,0,9.3,1.2,11.2,10.5c0,0-1-2.1-2.3-2.5c0.8,2.5,0.6,7.4-0.2,9.8c-0.1,0.3-0.2-1.3-1.8-2c0.5,3.6,0,9.3-2.5,10.9
		c-0.2,0.1,1.6-5.6,0.4-3.4c-7,10.7-15.2,4.9-18.9,2.4c1.9,0.4,5.5-0.1,7.1-1.3c0,0,0,0,0,0c1.7-1.2,2.8-2,3.7-1.8
		c0.9,0.2,1.5-0.7,0.8-1.5c-0.7-0.8-2.5-2-4.8-1.3c-1.7,0.4-3.7,2.3-6.9,0.4c-2.4-1.4-2.6-2.6-2.7-3.4c0.1-0.3,0.1-0.6,0.2-0.8
		c0.3-0.8,1.1-1,1.6-1.2c0.8,0.1,1.5,0.4,2.2,0.8c0-0.2,0-0.6,0-0.9c0.1-0.1,0-0.5-0.1-1.1c-0.1-0.5-0.2-1-0.3-1.5c0,0,0,0,0,0
		c0,0,0,0,0,0c0,0,0,0,0,0c0,0,0,0,0,0c0,0,0,0,0,0c0.1-0.2,0.6-0.7,1.3-1.1c0.6-0.4,1.3-0.9,1.9-1.2c0.5-0.3,0.9-0.5,0.9-0.6
		c0,0,0.1,0,0.1-0.1c0,0,0,0,0,0c0,0,0,0,0,0c0.3-0.2,0.7-0.6,0.7-1.4c0,0,0,0,0,0c0,0,0,0,0-0.1c0,0,0,0,0-0.1c0,0,0,0,0,0
		c0,0,0-0.1,0-0.1c0,0,0,0,0,0c0-0.1,0-0.2,0-0.3c0,0,0-0.1,0-0.1c0,0,0,0,0,0c0,0,0,0,0,0c0,0,0,0,0,0c0,0,0,0,0,0c0,0,0,0,0,0
		c0,0,0,0,0,0c-0.1-0.2-0.4-0.3-1.7-0.3c0,0,0,0,0,0l0,0c-0.5,0-1.2,0-2.2,0c-1.6,0-2.5-1.6-2.8-2.2c0.4-2.2,1.5-3.7,3.4-4.8
		c0,0,0,0,0,0c0.4-0.2-4.4,0-6.6,2.8c-1.9-0.5-3.6-0.5-5.1-0.1c-0.3,0-0.6,0-1-0.1c-1-0.9-2.4-2.5-2.4-4.5c0,0,0,0,0,0
		c0,0,0,0,0-0.1c0,0-3,2.3-2.5,8.5c0,0.1,0,0.2,0,0.3c-0.8,1.1-1.2,2-1.2,2.2c-0.7,1.4-1.4,3.6-2,6.9c0,0,0.4-1.3,1.2-2.8
		c-0.6,1.9-1.1,4.7-0.8,9.1c0,0,0.1-1,0.3-2.3c0.2,2.7,1.1,6,3.4,9.9c4.3,7.5,11,11.3,18.4,11.8c1.3,0.1,2.6,0.1,4,0
		c0.1,0,0.2,0,0.4,0c1.5-0.1,3-0.3,4.6-0.7C242.1,123.2,239.9,98.1,239.9,98.1L239.9,98.1z"/>
	<path fill="#202020" d="M122.6,0c-13.7,0-23.5,9.9-23.5,24.8c0,13.2,9.5,25.2,23.5,25.2c14.1,0,23.7-12,23.7-25.2
		C146.2,9.8,136.1,0,122.6,0z M131.3,24.4c0,8.3-0.4,20-8.7,20v0c-8.1,0-8.5-11.8-8.5-20c0-9.7,0.9-19,8.5-19
		C130.1,5.4,131.3,14.8,131.3,24.4z"/>
	<g>
		<g>
			<g>
				<path fill="#202020" d="M49.5,72.3c3.5,0.6,5.7,0.7,8.2-1c2.7-1.8,16.1-11.3,16.1-11.3s13.4-9.3,16.1-11.3
					c2.4-1.8,3.1-3.9,3.7-7.3c-3.5-0.6-5.7-0.7-8.2,1c-2.7,1.8-16.1,11.3-16.1,11.3S55.8,63,53.2,65C50.8,66.7,50.1,68.8,49.5,72.3z
					"/>
			</g>
		</g>
	</g>
	<g>
		<g>
			<g>
				<path fill="#202020" d="M196.5,72.3c-0.6-3.5-1.3-5.6-3.7-7.3c-2.6-1.9-16.1-11.3-16.1-11.3s-13.4-9.4-16.1-11.3
					c-2.5-1.7-4.7-1.6-8.2-1c0.6,3.5,1.3,5.6,3.7,7.3c2.6,1.9,16.1,11.3,16.1,11.3s13.4,9.4,16.1,11.3C190.8,73,193,72.9,196.5,72.3
					z"/>
			</g>
		</g>
	</g>
	<g>
		<g>
			<g>
				<path fill="#202020" d="M49,184.3c1.6-2.9,2.3-4.8,1.5-7.3c-0.9-2.7-5.8-16.1-5.8-16.1s-4.8-13.4-5.8-16.1
					c-1-2.4-2.7-3.4-5.8-4.6c-1.6,2.9-2.3,4.8-1.5,7.3c0.9,2.7,5.8,16.1,5.8,16.1s4.8,13.4,5.8,16.1C44.2,182.1,45.9,183.1,49,184.3
					z"/>
			</g>
		</g>
	</g>
	<g>
		<g>
			<g>
				<path fill="#202020" d="M189.9,184.2c3.1-1.2,4.9-2.1,5.8-4.6c1-2.6,5.8-16.1,5.8-16.1s4.9-13.4,5.8-16.1
					c0.8-2.5,0.1-4.3-1.5-7.3c-3.1,1.2-4.9,2.1-5.8,4.6c-1,2.6-5.8,16.1-5.8,16.1s-4.9,13.4-5.8,16.1
					C187.6,179.5,188.4,181.3,189.9,184.2z"/>
			</g>
		</g>
	</g>
	<g>
		<path fill="none" stroke="#202020" stroke-miterlimit="10" d="M98.6,213"/>
	</g>
	<g>
		<path fill="none" stroke="#202020" stroke-miterlimit="10" d="M145.4,213"/>
	</g>
	<g>
		<g>
			<g>
				<path fill="#202020" d="M96.5,215.8c2.5,2.5,4.2,3.8,7.2,3.9c3.2,0.1,19.4,0,19.4,0s16.2,0.1,19.4,0c3-0.1,4.7-1.4,7.2-3.9
					c-2.5-2.5-4.2-3.8-7.2-3.9c-3.2-0.1-19.4,0-19.4,0s-16.2-0.1-19.4,0C100.7,212,99,213.3,96.5,215.8z"/>
			</g>
		</g>
	</g>
</g>
</svg>
