<?xml version="1.0" encoding="utf-8"?>
<!-- Generator: Adobe Illustrator 18.1.1, SVG Export Plug-In . SVG Version: 6.00 Build 0)  -->
<svg version="1.1" id="Layer_1" xmlns="http://www.w3.org/2000/svg" xmlns:xlink="http://www.w3.org/1999/xlink" x="0px" y="0px"
	 viewBox="0 0 240 240" enable-background="new 0 0 240 240" xml:space="preserve">
<polygon fill="#FFFFFF" stroke="#926BAC" stroke-width="6" stroke-miterlimit="10" points="237,236.8 3,236.8 3,99.8 120,32.5 
	237,99.8 "/>
<rect x="198" y="5" fill="#202020" width="6.7" height="120.9"/>
<polygon fill="#FFFFFF" points="200.4,124.7 134.7,176.7 120.4,168.3 105.1,176.7 40.4,126.2 40.4,0 200.4,0 "/>
<polyline fill="none" stroke="#926BAC" stroke-width="6" stroke-miterlimit="10" points="3,236.8 120,168.3 237,236.8 "/>
<line fill="#FFFFFF" stroke="#926BAC" stroke-width="6" stroke-miterlimit="10" x1="103.5" y1="178" x2="3" y2="99.8"/>
<line fill="#FFFFFF" stroke="#926BAC" stroke-width="6" stroke-miterlimit="10" x1="237" y1="99.8" x2="136.5" y2="178"/>
<polygon fill="#F6A010" points="10.3,115.5 10.3,223.5 89.5,178 "/>
<polygon fill="#F6A010" points="229.6,114.7 229.6,222.7 150.3,177.2 "/>
<polygon fill="#F6A010" points="30.3,229.7 208.3,229.7 120,179.3 "/>
<rect x="47.6" y="10" fill="#F6A010" width="76" height="40"/>
<rect x="129.2" y="10" fill="#202020" width="64" height="4"/>
<rect x="129.2" y="19" fill="#202020" width="54.7" height="4"/>
<rect x="129.2" y="28" fill="#202020" width="32" height="4"/>
<rect x="129.2" y="37" fill="#202020" width="46.3" height="4"/>
<rect x="129.2" y="46" fill="#202020" width="18.3" height="4"/>
<rect x="47.6" y="55.1" fill="#926BAC" width="145.6" height="40"/>
<rect x="47.6" y="99.5" fill="#202020" width="57.4" height="4"/>
<rect x="47.6" y="108.5" fill="#202020" width="145.6" height="4"/>
<rect x="47.6" y="117.5" fill="#202020" width="127.8" height="4"/>
<polyline fill="#202020" points="56.8,130.5 56.8,126.5 164.5,126.5 164.5,130.5 "/>
<rect x="68.7" y="135.5" fill="#202020" width="41.6" height="4"/>
<rect x="80" y="144.5" fill="#202020" width="77.7" height="4"/>
</svg>
