<?xml version="1.0" encoding="utf-8"?>
<!-- Generator: Adobe Illustrator 18.1.1, SVG Export Plug-In . SVG Version: 6.00 Build 0)  -->
<svg version="1.1" id="Layer_1" xmlns="http://www.w3.org/2000/svg" xmlns:xlink="http://www.w3.org/1999/xlink" x="0px" y="0px"
	 viewBox="0 0 240 240" enable-background="new 0 0 240 240" xml:space="preserve">
<rect x="65.1" y="69.3" transform="matrix(0.7071 -0.7071 0.7071 0.7071 -52.6596 121.3119)" fill="#202020" width="109.9" height="109.9"/>
<polygon fill="#FFFFFF" points="118,103.3 232.1,103.3 221.6,220.3 175.1,232.7 128.5,220.3 "/>
<polygon fill="none" stroke="#946BAC" stroke-width="14" stroke-miterlimit="10" points="174.9,232.7 128.2,220.3 117.7,103 
	174.9,103 232.1,103 221.6,220.3 "/>
<polygon fill="#946CAC" points="136.4,121.8 213.7,121.8 206.9,199.8 175.1,208.6 143.3,199.9 141.4,175.2 157.1,175.2 158.1,187.7 
	174.9,192.5 192.3,187.5 194.2,167.8 158.4,167.8 157.1,152.3 195.5,152.3 196.6,137.2 137.7,137.2 "/>
<polygon fill="#FFFFFF" points="8.1,7.3 122.2,7.3 111.7,124.3 65.1,136.6 18.6,124.3 "/>
<g id="Layer_1_1_">
	<polygon fill="none" stroke="#F6A00C" stroke-width="14" stroke-miterlimit="10" points="65.1,136.6 18.6,124.3 8.1,7.3 65.1,7.3 
		122.2,7.3 111.7,124.3 	"/>
</g>
<g id="Layer_3">
	<g>
		<polygon fill="#F6A009" points="26.7,26 103.9,26 102.5,41.4 43.7,41.4 45.2,56.6 101.2,56.6 97,103.8 65.3,112.5 33.6,103.9 
			31.7,79.3 47.3,79.3 48.4,91.8 65.1,96.5 82.5,91.5 84.4,71.9 31.1,71.9 		"/>
	</g>
</g>
</svg>
