<?xml version="1.0" encoding="utf-8"?>
<!-- Generator: Adobe Illustrator 18.1.1, SVG Export Plug-In . SVG Version: 6.00 Build 0)  -->
<svg version="1.1" id="Layer_1" xmlns="http://www.w3.org/2000/svg" xmlns:xlink="http://www.w3.org/1999/xlink" x="0px" y="0px"
	 viewBox="0 0 240 240" enable-background="new 0 0 240 240" xml:space="preserve">
<g transform="translate(0.000000, 8.827586)">
	<path fill="#171717" d="M157.4,53.9l-0.1,1.2c-3.6,16.5-14.4,28.9-33,34.3c-8.7,2.5-17.7,2.5-23.8,1.5c-13.2-2.1-25.8-9.3-34-18.4
		c-11.8-13-18.8-33.6-6.9-53.5c0.2-0.1-1.1,3.9-0.8,3.9l-0.1,1.6C56.8,64.1,101,85.8,135,72.8C143.1,69.7,152.6,62.3,157.4,53.9"/>
	<path fill="#171717" d="M132.2,44.5c8.8-2.3,16.9-8.9,20.8-16.1c-1.5,13.3-13.2,24.8-32.3,27.2c-16,2.1-34.9-9.5-40.6-24.7
		c-4.1-11-2-18.9,2.3-28.8c-1.1,4.9-1.1,8.4-0.7,10.6C85.8,37.9,112.6,49.6,132.2,44.5"/>
	<path fill="#171717" d="M146.6,8c-0.5,3.5-6.8,11.5-10.1,13.2c-13,6.6-23.5,2.5-30.1-3.7c-1-0.9-3.1-3.6-3.5-4.3
		c-3.4-5.6-5.1-15-1-21.2c-0.4,5,0.8,10.3,2.5,13.5c1.1,1.9,3.6,5.1,5.8,7c4,3.4,6,3.9,10.3,5.1c1.9,0.5,3.9,0.9,4.7,0.9
		C128.9,18.4,136.9,19.2,146.6,8"/>
</g>
<path fill="#936BAC" d="M226.3,107l13.5-3.5c0,0-16,40.7-17.3,44.1c-0.4,1.1-1.2,2.3-1.4,3.7c-0.5,3.4,0,10.3,0,10.3l-12.3,3.4
	c0,0,0.1-7.4-1-11.1c-0.9-3.2-3.4-6-5.2-8.9c-1.8-3-4.8-9-4.8-9l12.7-3.4l3.6,6.5L226.3,107"/>
<path fill="#936BAC" d="M202.7,121c2.9,0.8,6.6,8.7,6.6,8.7s-13,3.7-20.1,5.6l-6.1,1.6l1.2,34.4l-11.4,3.1c0,0-2.4-37.1-2.4-43.9
	c0-2.2,3.3-2.7,8.6-4.1l8.6-2.3C193.3,122.6,199.5,120.1,202.7,121"/>
<path fill="#936BAC" d="M153.9,151c0,0-0.2-2.2-2.4-4.2c-1.9-1.7-3.2-1.8-6.8-1c-10,2.3-7.8,9.6-7.8,9.6L153.9,151L153.9,151z
	 M162.4,139.8c2.9,4.8,3.4,17.9,3.4,17.9s-14.5,3.6-22.3,6c-2.4,0.7-5.5,1.2-5.9,2.5c-0.6,1.9,1.5,4,2.9,4.7
	c1.7,0.8,4.4,0.3,5.4,0.1c6.6-0.9,19.9-5.1,19.9-5.1l0.4,10.9c0,0-18.7,6-28.8,6.3c-2,0.1-4-0.4-5.5-1.3c-0.4-0.3-0.8-0.7-1.2-1
	c-0.3-0.3-1.3-1.2-1.9-1.9c-3.7-5.2-4.3-16.9-3.5-23.5c0.1-0.8,0.2-1.7,0.4-2.6c0.2-1,0.3-2.2,0.5-2.8c0.1-0.4,0.4-0.8,0.5-1.2
	c0.2-0.5,0.4-1,0.6-1.5c0.6-1.3,1.4-2.2,2.4-3.4c3.2-4,9.7-8.2,18.5-9.7c3.3-0.5,8.5-0.7,11.8,2
	C160.9,136.9,161.7,138.6,162.4,139.8L162.4,139.8L162.4,139.8z"/>
<path fill="#936BAC" d="M107.9,145.4l11-3c0,0,1.7,30.8,2.3,45.9l-12.7,3.4c-8.9,2.4-16.5,5.6-21.6,0.1c-4.9-5.3-4.5-16.3-4.9-23.6
	c-0.3-5.2-0.8-15.7-0.8-15.7l11.4-3.2c0,0,0.9,16.4,1.7,24.5c0.3,2.9,0,5.8,1.6,7.6c1.5,1.7,2.9,1.5,7.2,0.4
	c1.3-0.3,5.7-1.5,5.7-1.5L107.9,145.4"/>
<path fill="#936BAC" d="M61.9,180.3c0.1-4.4,0.5-9.3-0.7-13c-1.3-3.9-5.6-6.6-7.9-6.8c-7.1-0.5-12.2,4.3-14,7.5
	c-2.2,4.2-2.2,8.4-1.9,14.1c0.3,4.2,0.7,8.7,3.1,11.4c4.1,4.8,12,1.4,20.9-0.9C61.8,188.7,61.8,184.5,61.9,180.3L61.9,180.3
	L61.9,180.3z M72.9,159.9c3.7,8.8,1.6,20.2,0.6,29.9c3.5-0.6,6.4-1.8,6.6-1.6c0.3,0.3,0.5,11.1-0.3,11.4c-2.7,0.8-11.6,3.3-15.3,4.3
	c-12.2,3.3-23.3,7.1-30.7,2.6c-3-1.8-5.8-5.6-7-8.5c-2-4.8-2.6-10.4-2.7-15.2c0-4.3,0.3-8.5,1.3-12.6c2.7-10.3,9.8-19.3,25.1-21.8
	c3-0.5,7.5-0.3,10.5,0.5c0.2,0.1,1,0.4,1.1,0.4C66.3,150.8,70.9,155.2,72.9,159.9L72.9,159.9L72.9,159.9z"/>
<path fill="#F6A010" d="M17.8,169.6c0.2,3.5,0.4,7.5,0.6,11.1l-12.3,3.3c0-3.9-0.3-7.8-0.2-11.2C9.8,171.7,13.5,170.8,17.8,169.6"/>
<path fill="#F6A010" d="M6.5,187.1l11.8-3.2c0.7,9,1.4,23.6,1.6,33.8c0.1,6.4,0.3,11.1-2.9,15.3c-0.3,0.4-0.5,0.3-0.8,0.7
	c-0.6,0.9-3.8,2.7-5.7,3.4c-3,1.2-6.6,1.8-10.5,2.8c0-3.9,0-8.6,0-12.2c9.6-1.4,7.5-10.3,7-19.3C6.8,203.4,6.4,189.3,6.5,187.1"/>
</svg>
