<?xml version="1.0" encoding="utf-8"?>
<!-- Generator: Adobe Illustrator 18.1.1, SVG Export Plug-In . SVG Version: 6.00 Build 0)  -->
<svg version="1.1" id="mail" xmlns="http://www.w3.org/2000/svg" xmlns:xlink="http://www.w3.org/1999/xlink" x="0px" y="0px"
	 viewBox="0 0 240 240" enable-background="new 0 0 240 240" xml:space="preserve">
<g id="Layer_2">
</g>
<g>
	<path fill="#FFFFFF" d="M169.6,128.6l69.6,69.6c0.5-2,0.8-4.1,0.8-6.2V48c0-0.5,0-1-0.1-1.5L169.6,128.6z"/>
	<path fill="#FFFFFF" d="M120,186.4l-33.9-39.6l-68.3,68.3c2,0.5,4.1,0.8,6.2,0.8h192c2.1,0,4.2-0.3,6.2-0.8l-68.3-68.3L120,186.4z"
		/>
	<path fill="#FFFFFF" d="M0.1,46.5C0,47,0,47.5,0,48v144c0,2.1,0.3,4.2,0.8,6.2l69.6-69.6L0.1,46.5z"/>
	<path fill="#FFFFFF" d="M225.8,26.1c-3.1-1.4-6.4-2.1-9.8-2.1H24c-3.4,0-6.8,0.7-9.8,2.1L120,149.6L225.8,26.1z"/>
	<path display="none" fill="#0A0A0A" d="M120,55.9c-32.5,0-58.8,26.3-58.8,58.8s26.3,58.8,58.8,58.8s58.8-26.3,58.8-58.8
		S152.5,55.9,120,55.9z M77.7,147.4v-66H162v66H77.7z"/>
</g>
</svg>
