<?xml version="1.0" encoding="utf-8"?>
<!-- Generator: Adobe Illustrator 18.1.1, SVG Export Plug-In . SVG Version: 6.00 Build 0)  -->
<svg version="1.1" xmlns="http://www.w3.org/2000/svg" xmlns:xlink="http://www.w3.org/1999/xlink" x="0px" y="0px"
	 viewBox="0 0 240 240" enable-background="new 0 0 240 240" xml:space="preserve">
<g id="Layer_1">
	<g id="mobile">
		<path fill="#202021" d="M0,64.6L0,4c0-2.2,1.8-4,4-4l32,0c2.2,0,4,1.8,4,4v60.6c0,2.2-1.8,4-4,4H4C1.8,68.6,0,66.8,0,64.6z"/>
		<rect x="3.4" y="4.8" fill="#FFFFFF" width="33.1" height="54.3"/>
		<rect x="4.9" y="6.1" fill="#946CAC" width="30.3" height="11.4"/>
		<rect x="4.9" y="19" fill="#F6A009" width="30.3" height="6"/>
		<rect x="4.9" y="25.8" fill="#010202" width="30.3" height="1.1"/>
		<rect x="4.9" y="27.8" fill="#010202" width="25.9" height="1.1"/>
		<rect x="4.9" y="30" fill="#010202" width="25.9" height="1.1"/>
		<rect x="4.9" y="32.1" fill="#010202" width="30.3" height="1.1"/>
		<rect x="4.9" y="34.5" fill="#C3D100" width="30.3" height="6"/>
		<rect x="4.9" y="41.4" fill="#010202" width="30.3" height="1.1"/>
		<rect x="4.9" y="43.4" fill="#010202" width="30.3" height="1.1"/>
		<rect x="4.9" y="45.5" fill="#010202" width="22.3" height="1.1"/>
		<rect x="4.9" y="47.7" fill="#010202" width="30.3" height="1.1"/>
		<rect x="4.9" y="50.2" fill="#3E86C7" width="30.3" height="6"/>
		<rect x="4.9" y="57.1" fill="#010202" width="27.3" height="1.1"/>
		<circle fill="none" stroke="#FFFFFF" stroke-width="0.5" stroke-miterlimit="10" cx="20" cy="64.1" r="2.2"/>
	</g>
	<g id="tablet">
		<path fill="#202021" d="M160,94.1V4c0-2.2,1.8-4,4-4l72,0c2.2,0,4,1.8,4,4v90.1c0,2.2-1.8,4-4,4h-72C161.8,98.1,160,96.3,160,94.1
			z"/>
		<rect x="167.2" y="6.8" fill="#FFFFFF" width="65.6" height="84.4"/>
		<rect x="169.5" y="9" fill="#946CAC" width="61.1" height="18"/>
		<rect x="169.5" y="31.5" fill="#F6A009" width="29.6" height="13.5"/>
		<rect x="200.9" y="31.5" fill="#C3D100" width="29.6" height="13.5"/>
		<rect x="169.5" y="46.3" fill="#010202" width="29.6" height="1.8"/>
		<rect x="169.5" y="49.5" fill="#010202" width="25.3" height="1.8"/>
		<rect x="169.5" y="52.8" fill="#010202" width="25.3" height="1.8"/>
		<rect x="169.5" y="56.2" fill="#010202" width="29.6" height="1.8"/>
		<rect x="201" y="46.3" fill="#010202" width="29.6" height="1.8"/>
		<rect x="201" y="49.5" fill="#010202" width="29.6" height="1.8"/>
		<rect x="201" y="52.8" fill="#010202" width="21.8" height="1.8"/>
		<rect x="201" y="56.2" fill="#010202" width="29.6" height="1.8"/>
		<rect x="169.5" y="62.5" fill="#3E86C7" width="29.6" height="13.5"/>
		<rect x="169.5" y="77.3" fill="#010202" width="29.6" height="1.8"/>
		<rect x="169.5" y="80.4" fill="#010202" width="25.5" height="1.8"/>
		<rect x="169.5" y="83.8" fill="#010202" width="29.6" height="1.8"/>
		<rect x="169.5" y="87.2" fill="#010202" width="29.6" height="1.8"/>
		<circle fill="none" stroke="#FFFFFF" stroke-width="0.5" stroke-miterlimit="10" cx="200" cy="3.4" r="2"/>
	</g>
</g>
<g id="Layer_2">
	<g id="pc">
		<path fill="#202021" d="M97.8,235.4v-8.1H81.1H64.3v8.1c0,0.3-0.2,0.5-0.4,0.6l-9.7,2.9c-0.6,0.2-0.5,1.1,0.1,1.1h26.8h26.8
			c0.6,0,0.7-0.9,0.1-1.1l-9.7-2.9C98,235.9,97.8,235.7,97.8,235.4z"/>
		<path fill="#202021" d="M157.6,228.6H4.5c-2.2,0-4-1.8-4-4v-71.1c0-2.2,1.8-4,4-4h153.2c2.2,0,4,1.8,4,4v71.1
			C161.6,226.8,159.8,228.6,157.6,228.6z"/>
		<rect x="7.9" y="157.8" fill="#FFFFFF" width="146.4" height="62.6"/>
		<rect x="11.2" y="160.5" fill="#946CAC" width="139.7" height="22"/>
		<rect x="11.2" y="185.2" fill="#F6A009" width="41.6" height="16.5"/>
		<rect x="109.3" y="185.2" fill="#3E86C7" width="41.6" height="16.5"/>
		<rect x="60.2" y="185.2" fill="#C3D100" width="41.6" height="16.5"/>
		<rect x="11.2" y="203.4" fill="#010202" width="41.6" height="2.2"/>
		<rect x="11.2" y="207.2" fill="#010202" width="35.6" height="2.2"/>
		<rect x="11.2" y="211.3" fill="#010202" width="35.6" height="2.2"/>
		<rect x="11.2" y="215.5" fill="#010202" width="41.6" height="2.2"/>
		<rect x="60.2" y="203.4" fill="#010202" width="41.6" height="2.2"/>
		<rect x="60.2" y="207.2" fill="#010202" width="41.6" height="2.2"/>
		<rect x="60.2" y="211.3" fill="#010202" width="30.7" height="2.2"/>
		<rect x="60.2" y="215.5" fill="#010202" width="41.6" height="2.2"/>
		<rect x="109.3" y="203.4" fill="#010202" width="41.6" height="2.2"/>
		<rect x="109.3" y="207.2" fill="#010202" width="35.8" height="2.2"/>
		<rect x="109.3" y="211.3" fill="#010202" width="41.6" height="2.2"/>
		<rect x="109.3" y="215.5" fill="#010202" width="41.6" height="2.2"/>
		<ellipse fill="none" stroke="#FFFFFF" stroke-miterlimit="10" cx="81.1" cy="224.9" rx="2.4" ry="2.5"/>
	</g>
</g>
<g id="Layer_3">
	<g>
		<g>
			<g>
				<g>
					<path fill="#202021" d="M106.5,44.8c4.8-2.7,9.9-5.1,15.4-7.3c0,0,1-0.4,2.6-0.9c0.8-0.3,1.7-0.6,2.7-0.9c1-0.3,2-0.6,3.1-1
						c1.1-0.3,2.2-0.7,3.2-0.9c1-0.3,2-0.5,2.8-0.7c1.7-0.4,2.8-0.7,2.8-0.7s-0.8-0.8-2-2.1c-0.6-0.6-1.3-1.4-2.1-2.1
						c-0.8-0.8-1.6-1.6-2.5-2.4c-0.9-0.8-1.7-1.6-2.6-2.4c-0.8-0.7-1.6-1.4-2.3-2c-1.4-1.2-2.3-1.9-2.3-1.9c-5-4-10.4-7.8-16.2-11.3
						l-0.7,9.3c0,0-1-0.1-2.6-0.1c-0.9,0-1.8-0.1-2.8-0.1c-1,0-2.1,0-3.2-0.1c-2.2-0.1-4.5,0-6.9,0.1c-2.3,0-4.7,0.3-6.8,0.4
						c-1.9,0.2-3.6,0.4-5.1,0.5c-0.8,0.1-1.4,0.2-1.9,0.2c-0.4,0.1-0.7,0.1-0.7,0.1l2.4,17.9c0,0,0.2,0,0.6-0.1
						c0.4-0.1,1-0.1,1.6-0.2c1.3-0.1,2.8-0.3,4.5-0.4c1.9-0.1,4-0.3,6-0.3c2-0.1,4.1-0.1,6-0.1c1,0,1.9,0,2.8,0
						c0.9,0,1.7,0.1,2.5,0.1c1.4,0.1,2.3,0.1,2.3,0.1L106.5,44.8z"/>
					<path fill="#202021" d="M66.9,20.8c0,0,0.5-0.1,1.3-0.3c0.8-0.2,1.9-0.4,3-0.6c1.1-0.2,2.2-0.4,3-0.5c0.8-0.2,1.4-0.2,1.4-0.2
						l2.6,17.1c0,0-0.5,0-1.2,0.2c-0.7,0.1-1.7,0.3-2.6,0.5c-1,0.2-1.9,0.3-2.6,0.5c-0.7,0.2-1.2,0.3-1.2,0.3L66.9,20.8z"/>
					<path fill="#202021" d="M59.4,22.7c0,0,1.2-0.3,2.4-0.6c0.6-0.2,1.2-0.3,1.7-0.4c0.5-0.1,0.8-0.2,0.8-0.2l4,16.8
						c0,0-0.3,0.1-0.7,0.2c-0.4,0.1-0.9,0.2-1.5,0.4c-1.1,0.3-2.1,0.6-2.1,0.6L59.4,22.7z"/>
				</g>
				<polygon fill="#202021" points="52.8,24.7 56,23.7 61,40.2 58.1,41.1 				"/>
			</g>
		</g>
	</g>
	<g>
		<g>
			<g>
				<g>
					<path fill="#202021" d="M177.5,155.2c0.4,4.6-0.6,9.9-2.3,15.4c0,0-0.3,1-0.9,2.6c-0.5,1.6-1.4,3.6-2.2,5.7
						c-0.9,2.1-1.8,4.2-2.5,5.7c-0.7,1.6-1.2,2.6-1.2,2.6s1.1-0.1,2.9-0.3c1.7-0.2,4-0.4,6.3-0.7c2.3-0.3,4.7-0.7,6.4-1
						c1.8-0.3,3-0.6,3-0.6c3.2-0.7,6.4-1.6,9.8-2.7c3.3-1.2,6.7-2.7,10.1-4.6l-7.5-5.6c0,0,0.7-0.9,1.7-2.3c1.3-1.8,2.6-4.1,3.9-6.7
						c1.2-2.6,2.4-5.4,3.2-8.3c0.9-2.9,1.4-5.7,1.9-8.4c0.2-1.3,0.4-2.6,0.5-3.8c0.1-0.8,0.1-1.6,0.2-2.3c0.1-1.6,0.1-2.7,0.1-2.7
						l-18-0.6c0,0,0,0.9-0.1,2.1c0,0.5-0.1,1.1-0.1,1.8c-0.1,0.9-0.2,1.9-0.3,2.9c-0.3,2-0.7,4-1.3,6c-0.5,2-1.3,3.8-2.1,5.5
						c-0.8,1.6-1.7,3.2-2.6,4.4c-0.6,1-1.2,1.6-1.2,1.6L177.5,155.2z"/>
					<path fill="#202021" d="M210.1,125.1c0,0,0,0.5,0.1,1.4c0,0.8,0.1,1.9,0.2,3c0,1.1,0.1,2.2,0.1,3.1c0,0.8,0,1.4,0,1.4l-17.3,0
						c0,0,0-0.5,0-1.2c0-0.7,0-1.7-0.1-2.6c0-1-0.1-1.9-0.1-2.6c-0.1-0.7-0.1-1.2-0.1-1.2L210.1,125.1z"/>
					<path fill="#202021" d="M209.4,117.6c0,0,0.1,1.2,0.3,2.4c0.1,1.2,0.2,2.5,0.2,2.5l-17.2,1.5c0,0-0.1-1.1-0.2-2.2
						c-0.1-1.1-0.2-2.3-0.2-2.3L209.4,117.6z"/>
				</g>
				<polygon fill="#202021" points="208.6,111 209,114.2 191.8,116.2 191.5,113.1 				"/>
			</g>
		</g>
	</g>
</g>
</svg>
