<?xml version="1.0" encoding="utf-8"?>
<!-- Generator: Adobe Illustrator 18.1.1, SVG Export Plug-In . SVG Version: 6.00 Build 0)  -->
<svg version="1.1" id="Layer_1" xmlns="http://www.w3.org/2000/svg" xmlns:xlink="http://www.w3.org/1999/xlink" x="0px" y="0px"
	 viewBox="0 0 240 240" enable-background="new 0 0 240 240" xml:space="preserve">
<g transform="translate(0.738281, 121.593)">
	<path fill="#936BAC" d="M-0.7,109.2h9.6V73.8l13.3,30.3c1.6,3.8,3.9,5.1,8.3,5.1s6.6-1.3,8.2-5.1l13.3-29.5v34.7h9.6V72.9
		c0-3.5-1.4-5.2-4.2-6c-6.8-2.2-11.4-0.3-13.5,4.4l-13.7,30.8L17,71.3c-2-4.7-6.7-6.5-13.5-4.4c-2.9,0.9-4.2,2.6-4.2,6L-0.7,109.2
		L-0.7,109.2z"/>
</g>
<g transform="translate(100.444, 142.416)">
	<path fill="#936BAC" d="M-33.2,59.6h9.6v20.3c-0.1,1,0.3,3.7,4.9,3.7c2.4,0,14.1,0,14.3,0v-24h9.6c0,0,0,29.8,0,30
		c0,7.4-9.1,8.3-13.4,8.4h-25v-4.8c0,0,23.9,0,24,0c5.4-0.6,4.8-3.6,4.8-4.5v-0.3h-15.1c-8.4-0.1-13.7-3.8-13.7-7.9
		C-33.2,80.1-33.1,59.8-33.2,59.6z"/>
</g>
<g transform="translate(171.496, 124.557)">
	<path fill="#F6A010" d="M-61.1,106.3h24c3.1,0,6.2-0.7,8.6-1.8c4.1-1.9,5.7-4.4,5.7-7.7V90c0-7.4-9.1-7.7-14.4-7.7h-9.6
		c-3.8,0-4.3-2.3-4.8-4.8v-4.8c0.5-1.9,1.3-4.5,4.6-4.8c3.9,0,24.2,0,24.2,0v-4.8h-22.8c-3.8,0-15.6,0.5-15.6,9.6v5.9
		c0,4.2,3.7,7.6,11.7,8.5c0.9,0.1,1.8,0.1,2.7,0.1c0,0,9.3-0.2,9.6-0.1c5.4,0,4.8,4.2,4.8,4.8v4.8c0,0.7-0.1,4.8-4.9,4.8
		c-0.4,0-23.9,0-23.9,0V106.3z"/>
</g>
<g transform="translate(308.656, 124.557)">
	<path fill="#F6A010" d="M-107.1,96.5c0,5.8,3.3,9,12,9.7c0.8,0.1,1.6,0.1,2.4,0.1h24v-4.8h-22.2c-5,0-6.6-2.1-6.6-5.1V63.1h-9.6
		V96.5z"/>
</g>
<g transform="translate(236.74, 124.666)">
	<path fill="#F6A010" d="M-83.2,96.6v-24c0-5.1,2.5-8.6,9.6-9.6h3.4H-53h2.6c7.1,1,10.4,4.5,10.4,9.6v23.9c0,4.1-1.1,6.4-4.6,7.8
		l7.4,6.7H-48l-5.4-4.8h-6.3l-10.7,0.1c-1.5,0-3.2-0.2-5-0.7C-80.6,104.1-83.2,101.2-83.2,96.6z M-73.6,96.6
		c0.5,2.3,2.4,4.8,5.7,4.8h9.3l-5.3-4.8h10.9l2.6,2.4c0,0,0.9-0.8,0.9-2.4c0-1.7-0.1-24-0.1-24c-0.5-2.2-2.7-4.8-5.9-4.8h-12.4
		c-3.7,0-5.7,2.7-5.7,5.3L-73.6,96.6L-73.6,96.6z"/>
</g>
<g transform="translate(241.59, -4.64258)">
	<path fill="#202020" d="M-18.7,155c-10.7-0.3-18.9,0.7-25.9,3.7c-2,0.8-5.2,0.9-5.5,3.4c1.1,1.1,1.3,2.9,2.1,4.3
		c1.7,2.7,4.5,6.3,7,8.2c2.8,2.1,5.6,4.3,8.5,6.1c5.2,3.2,11.1,5,16.2,8.2c3,1.9,5.9,4.3,8.8,6.4c1.4,1.1,2.4,2.7,4.3,3.4
		c0-0.1,0-0.2,0-0.3c-1-1.2-1.2-3-2.1-4.3c-1.3-1.3-2.6-2.6-4-4c-3.9-5.1-8.8-9.7-14-13.4c-4.2-3-13.5-7-15.3-11.9
		c-0.1-0.1-0.2-0.2-0.3-0.3c3-0.3,6.4-1.4,9.2-2.1c4.6-1.2,8.7-0.9,13.4-2.1c2.1-0.6,4.3-1.2,6.4-1.8c0-0.4,0-0.8,0-1.2
		c-2.4-2.5-4.1-5.7-6.7-7.9c-6.8-5.8-14.3-11.6-22-16.5c-4.3-2.7-9.5-4.4-14-6.7c-1.5-0.8-4.2-1.2-5.2-2.4c-2.4-3-3.7-6.9-5.5-10.4
		c-3.8-7.4-7.6-15.4-11-23.2c-2.3-5.3-3.8-10.5-6.7-15.3c-13.9-22.8-28.8-36.5-51.9-50c-4.9-2.9-10.8-4-17.1-5.5
		c-3.4-0.2-6.7-0.4-10.1-0.6c-2-0.9-4.2-3.4-6.1-4.6c-7.7-4.8-27.3-15.4-33-1.5c-3.6,8.7,5.3,17.2,8.5,21.7
		c2.2,3.1,5.1,6.6,6.7,10.1c1,2.3,1.2,4.6,2.1,7c2.2,6,5.7,12.8,8.6,18.3c1.4,2.8,3,5.7,4.9,8.2c1.1,1.5,3,2.2,3.4,4.6
		c-1.9,2.6-2,6.7-3,10.1c-4.8,15-3,33.7,4,44.9c2.1,3.4,7.1,10.7,14,7.9c6-2.5,4.7-10.1,6.4-16.8c0.4-1.5,0.1-2.6,0.9-3.7
		c0,0.1,0,0.2,0,0.3c1.8,3.7,3.7,7.3,5.5,11c4.1,6.5,11.3,13.4,17.4,18c3.2,2.4,5.7,6.5,9.8,7.9c0-0.1,0-0.2,0-0.3
		c-0.1,0-0.2,0-0.3,0c-0.8-1.2-2-1.7-3-2.7c-2.4-2.3-5-5.2-7-7.9c-5.6-7.5-10.5-15.8-15-24.4c-2.1-4.1-4-8.6-5.8-12.8
		c-0.7-1.6-0.7-4-2.1-4.9c-2,3.1-4.9,5.5-6.4,9.2c-2.4,5.8-2.8,12.8-3.7,20.1c-0.5,0.2-0.3,0.1-0.6,0.3c-4.2-1-5.7-5.4-7.3-9.2
		c-4-9.5-4.7-24.8-1.2-35.7c0.9-2.8,5-11.7,3.4-14.3c-0.8-2.6-3.4-4.1-4.9-6.1c-1.8-2.5-3.6-5.7-4.9-8.5c-3.3-7.4-6.4-16-9.8-23.5
		c-1.6-3.6-4.4-7.2-6.7-10.4c-2.5-3.5-5.4-6.1-7.3-10.4c-0.7-1.5-1.6-3.9-0.6-5.5c0.3-1,0.8-1.5,1.8-1.8c1.8-1.4,6.7,0.4,8.5,1.2
		c4.9,2,9,4,13.1,6.7c2,1.3,4,3.9,6.4,4.6c0.9,0,1.8,0,2.7,0c4.3,1,9.1,0.3,13.1,1.5c7.1,2.2,13.5,5.5,19.2,9.2
		c17.6,11.1,32,26.9,41.8,45.8c1.6,3,2.3,5.9,3.7,9.2c2.8,6.5,6.4,13.2,9.2,19.5c2.8,6.3,5.5,12.7,9.5,18c2.1,2.8,10.1,4.3,13.7,5.8
		c2.5,1.1,6.7,2.2,9.2,3.7c4.6,2.8,9.1,6.1,13.4,9.2C-25.7,148.9-19,152.2-18.7,155z"/>
</g>
<g transform="translate(272.504, 24.8027)">
	<path fill="#202020" d="M-186,9.2c-2.2,0-3.8,0.2-5.5,0.6c0,0.1,0,0.2,0,0.3c0.1,0,0.2,0,0.3,0c1.1,2.2,2.9,3.6,4.3,5.5
		c1,2.1,2,4.3,3,6.4c0.1-0.1,0.2-0.2,0.3-0.3c1.9-1.3,2.8-3.5,2.7-6.7c-0.8-0.8-0.9-1.8-1.5-2.7C-183.2,11-184.9,10.3-186,9.2z"/>
</g>
</svg>
