<?xml version="1.0" encoding="utf-8"?>
<!-- Generator: Adobe Illustrator 18.1.1, SVG Export Plug-In . SVG Version: 6.00 Build 0)  -->
<svg version="1.1" id="Layer_1" xmlns="http://www.w3.org/2000/svg" xmlns:xlink="http://www.w3.org/1999/xlink" x="0px" y="0px"
	 viewBox="0 0 240 240" enable-background="new 0 0 240 240" xml:space="preserve">
<g>
	<path fill="#202020" d="M71.3,145.4l-8.6,8.6l13.6,19.9l7.2-7.2c6.2-6.2,11.3-12.7,3-22.9C83.2,140,78.5,138.2,71.3,145.4z"/>
	<path fill="#202020" d="M159.3,57.4l-8.6,8.6L164.2,86l7.2-7.2c6.2-6.2,11.3-12.7,3-22.9C171.2,52,166.4,50.3,159.3,57.4z"/>
	<path fill="#202020" d="M69.9,63C13.6,119.4-6.7,187.5,23.8,218s98.6,10.3,155-46.1s76.6-124.4,46.1-155S126.3,6.6,69.9,63z
		 M99.5,136c9.4,15.3,4.9,26.5-9.5,40.9l-6.9,6.9l10.4,14.8l-11.1,11.1l-37.6-54.6l22.3-22.3C77.8,122.2,91.4,122.9,99.5,136z
		 M143.1,123.8l-14.5-22.5c-2-3-4-4.6-5.8-4.7c-1.8-0.1-4.1,1.3-6.9,4.1l-8.8,8.8L127,140l-11,11L76.2,90.2l11-11l13.3,20.2l9.8-9.8
		c6.2-6.2,11.3-9.5,15.8-9.7c4.5-0.2,8.7,2.6,12.6,8.3l15.7,24.4L143.1,123.8z M187.4,48.1c9.4,15.3,4.9,26.5-9.5,40.9l-6.9,6.9
		l10.4,14.8l-11.1,11.1l-37.6-54.6l22.3-22.3C165.7,34.2,179.3,34.9,187.4,48.1z"/>
</g>
<ellipse transform="matrix(0.7071 -0.7071 0.7071 0.7071 -49.0099 116.2507)" fill="#F6A012" cx="115.8" cy="117.3" rx="122.7" ry="66.6"/>
<g>
	<path fill="#926BAC" d="M62.8,145.2l-8.6,8.6l13.6,19.9l7.2-7.2c6.2-6.2,11.3-12.7,3-22.9C74.6,139.8,69.9,138.1,62.8,145.2z"/>
	<path fill="#926BAC" d="M150.7,57.3l-8.6,8.6l13.6,19.9l7.2-7.2c6.2-6.2,11.3-12.7,3-22.9C162.6,51.8,157.9,50.1,150.7,57.3z"/>
	<path fill="#926BAC" d="M61.4,62.8C5,119.2-15.2,187.3,15.3,217.8s98.6,10.3,155-46.1s76.6-124.4,46.1-155S117.7,6.5,61.4,62.8z
		 M90.9,135.8c9.4,15.3,4.9,26.5-9.5,40.9l-6.9,6.9l10.4,14.8l-11.1,11.1L36.2,155l22.3-22.3C69.2,122,82.8,122.7,90.9,135.8z
		 M134.6,123.7l-14.5-22.5c-2-3-4-4.6-5.8-4.7c-1.8-0.1-4.1,1.3-6.9,4.1l-8.8,8.8l19.8,30.4l-11,11L67.7,90l11-11l13.3,20.2l9.8-9.8
		c6.2-6.2,11.3-9.5,15.8-9.7c4.5-0.2,8.7,2.6,12.6,8.3l15.7,24.4L134.6,123.7z M178.9,47.9c9.4,15.3,4.9,26.5-9.5,40.9l-6.9,6.9
		l10.4,14.8l-11.1,11.1L124.2,67l22.3-22.3C157.2,34,170.8,34.7,178.9,47.9z"/>
</g>
</svg>
