<?xml version="1.0" encoding="utf-8"?>
<!-- Generator: Adobe Illustrator 18.1.1, SVG Export Plug-In . SVG Version: 6.00 Build 0)  -->
<svg version="1.1" id="Layer_1" xmlns="http://www.w3.org/2000/svg" xmlns:xlink="http://www.w3.org/1999/xlink" x="0px" y="0px"
	 viewBox="0 0 240 240" enable-background="new 0 0 240 240" xml:space="preserve">
<rect x="0" y="0" fill="#F6A010" width="13.3" height="13.3"/>
<rect x="0" y="13.3" fill="#F6A010" width="13.3" height="13.3"/>
<rect x="0" y="26.7" fill="#F6A010" width="13.3" height="13.3"/>
<rect x="0" y="40" fill="#F6A010" width="13.3" height="13.3"/>
<rect x="0" y="53.3" fill="#F6A010" width="13.3" height="13.3"/>
<rect x="13.3" y="0" fill="#F6A010" width="13.3" height="13.3"/>
<rect x="26.7" y="0" fill="#F6A010" width="13.3" height="13.3"/>
<rect x="40" y="13.3" fill="#F6A010" width="13.3" height="13.3"/>
<rect x="40" y="26.7" fill="#F6A010" width="13.3" height="13.3"/>
<rect x="26.7" y="40" fill="#F6A010" width="13.3" height="13.3"/>
<rect x="13.3" y="40" fill="#F6A010" width="13.3" height="13.3"/>
<rect x="0" y="66.7" fill="#F6A010" width="13.3" height="13.3"/>
<rect x="60" y="0" fill="#F6A010" width="13.3" height="13.3"/>
<rect x="60" y="13.3" fill="#F6A010" width="13.3" height="13.3"/>
<rect x="60" y="26.7" fill="#F6A010" width="13.3" height="13.3"/>
<rect x="60" y="40" fill="#F6A010" width="13.3" height="13.3"/>
<rect x="60" y="53.3" fill="#F6A010" width="13.3" height="13.3"/>
<rect x="60" y="66.7" fill="#F6A010" width="13.3" height="13.3"/>
<rect x="80" y="0" fill="#F6A010" width="13.3" height="13.3"/>
<rect x="93.3" y="13.3" fill="#F6A010" width="13.3" height="13.3"/>
<rect x="106.7" y="26.7" fill="#F6A010" width="13.3" height="13.3"/>
<rect x="93.3" y="53.3" fill="#F6A010" width="13.3" height="13.3"/>
<rect x="80" y="66.7" fill="#F6A010" width="13.3" height="13.3"/>
<rect x="106.7" y="40" fill="#F6A010" width="13.3" height="13.3"/>
<rect x="133.3" y="0" fill="#F6A010" width="13.3" height="13.3"/>
<rect x="120" y="13.3" fill="#F6A010" width="13.3" height="13.3"/>
<rect x="120" y="53.3" fill="#F6A010" width="13.3" height="13.3"/>
<rect x="133.3" y="66.7" fill="#F6A010" width="13.3" height="13.3"/>
<rect x="153.3" y="0" fill="#F6A010" width="13.3" height="13.3"/>
<rect x="153.3" y="13.3" fill="#F6A010" width="13.3" height="13.3"/>
<rect x="153.3" y="26.7" fill="#F6A010" width="13.3" height="13.3"/>
<rect x="153.3" y="40" fill="#F6A010" width="13.3" height="13.3"/>
<rect x="153.3" y="53.3" fill="#F6A010" width="13.3" height="13.3"/>
<rect x="153.3" y="66.7" fill="#F6A010" width="13.3" height="13.3"/>
<rect x="166.7" y="0" fill="#F6A010" width="13.3" height="13.3"/>
<rect x="180" y="0" fill="#F6A010" width="13.3" height="13.3"/>
<rect x="166.7" y="66.7" fill="#F6A010" width="13.3" height="13.3"/>
<rect x="180" y="66.7" fill="#F6A010" width="13.3" height="13.3"/>
<rect x="166.7" y="33.3" fill="#F6A010" width="13.3" height="13.3"/>
<rect x="180" y="33.3" fill="#F6A010" width="13.3" height="13.3"/>
<rect x="200" y="0" fill="#F6A010" width="13.3" height="13.3"/>
<rect x="200" y="13.3" fill="#F6A010" width="13.3" height="13.3"/>
<rect x="200" y="26.7" fill="#F6A010" width="13.3" height="13.3"/>
<rect x="200" y="40" fill="#F6A010" width="13.3" height="13.3"/>
<rect x="200" y="53.3" fill="#F6A010" width="13.3" height="13.3"/>
<rect x="200" y="66.7" fill="#F6A010" width="13.3" height="13.3"/>
<rect x="213.3" y="66.7" fill="#F6A010" width="13.3" height="13.3"/>
<rect x="226.7" y="66.7" fill="#F6A010" width="13.3" height="13.3"/>
<rect x="0" y="188.6" fill="#926BAC" width="8.6" height="8.6"/>
<rect x="0" y="197.1" fill="#926BAC" width="8.6" height="8.6"/>
<rect x="0" y="205.7" fill="#926BAC" width="8.6" height="8.6"/>
<rect x="0" y="214.3" fill="#926BAC" width="8.6" height="8.6"/>
<rect x="0" y="222.9" fill="#926BAC" width="8.6" height="8.6"/>
<rect x="8.6" y="188.6" fill="#926BAC" width="8.6" height="8.6"/>
<rect x="17.1" y="188.6" fill="#926BAC" width="8.6" height="8.6"/>
<rect x="25.7" y="197.1" fill="#926BAC" width="8.6" height="8.6"/>
<rect x="25.7" y="205.7" fill="#926BAC" width="8.6" height="8.6"/>
<rect x="17.1" y="214.3" fill="#926BAC" width="8.6" height="8.6"/>
<rect x="8.6" y="214.3" fill="#926BAC" width="8.6" height="8.6"/>
<rect x="0" y="231.4" fill="#926BAC" width="8.6" height="8.6"/>
<rect x="38.6" y="188.6" fill="#926BAC" width="8.6" height="8.6"/>
<rect x="38.6" y="197.1" fill="#926BAC" width="8.6" height="8.6"/>
<rect x="38.6" y="205.7" fill="#926BAC" width="8.6" height="8.6"/>
<rect x="38.6" y="214.3" fill="#926BAC" width="8.6" height="8.6"/>
<rect x="38.6" y="222.9" fill="#926BAC" width="8.6" height="8.6"/>
<rect x="38.6" y="231.4" fill="#926BAC" width="8.6" height="8.6"/>
<rect x="47.1" y="188.6" fill="#926BAC" width="8.6" height="8.6"/>
<rect x="55.7" y="188.6" fill="#926BAC" width="8.6" height="8.6"/>
<rect x="47.1" y="231.4" fill="#926BAC" width="8.6" height="8.6"/>
<rect x="55.7" y="231.4" fill="#926BAC" width="8.6" height="8.6"/>
<rect x="47.1" y="210" fill="#926BAC" width="8.6" height="8.6"/>
<rect x="55.7" y="210" fill="#926BAC" width="8.6" height="8.6"/>
<rect x="68.6" y="188.6" fill="#926BAC" width="8.6" height="8.6"/>
<rect x="68.6" y="197.1" fill="#926BAC" width="8.6" height="8.6"/>
<rect x="68.6" y="205.7" fill="#926BAC" width="8.6" height="8.6"/>
<rect x="68.6" y="214.3" fill="#926BAC" width="8.6" height="8.6"/>
<rect x="68.6" y="222.9" fill="#926BAC" width="8.6" height="8.6"/>
<rect x="77.1" y="188.6" fill="#926BAC" width="8.6" height="8.6"/>
<rect x="85.7" y="188.6" fill="#926BAC" width="8.6" height="8.6"/>
<rect x="94.3" y="197.1" fill="#926BAC" width="8.6" height="8.6"/>
<rect x="94.3" y="205.7" fill="#926BAC" width="8.6" height="8.6"/>
<rect x="85.7" y="214.3" fill="#926BAC" width="8.6" height="8.6"/>
<rect x="77.1" y="214.3" fill="#926BAC" width="8.6" height="8.6"/>
<rect x="68.6" y="231.4" fill="#926BAC" width="8.6" height="8.6"/>
<rect x="94.3" y="222.9" fill="#926BAC" width="8.6" height="8.6"/>
<rect x="94.3" y="231.4" fill="#926BAC" width="8.6" height="8.6"/>
<rect x="107.1" y="188.6" fill="#926BAC" width="8.6" height="8.6"/>
<rect x="107.1" y="197.1" fill="#926BAC" width="8.6" height="8.6"/>
<rect x="107.1" y="205.7" fill="#926BAC" width="8.6" height="8.6"/>
<rect x="107.1" y="214.3" fill="#926BAC" width="8.6" height="8.6"/>
<rect x="107.1" y="222.9" fill="#926BAC" width="8.6" height="8.6"/>
<rect x="107.1" y="231.4" fill="#926BAC" width="8.6" height="8.6"/>
<rect x="115.7" y="188.6" fill="#926BAC" width="8.6" height="8.6"/>
<rect x="124.3" y="188.6" fill="#926BAC" width="8.6" height="8.6"/>
<rect x="115.7" y="210" fill="#926BAC" width="8.6" height="8.6"/>
<rect x="124.3" y="210" fill="#926BAC" width="8.6" height="8.6"/>
<rect x="137.1" y="188.6" fill="#926BAC" width="8.6" height="8.6"/>
<rect x="137.1" y="197.1" fill="#926BAC" width="8.6" height="8.6"/>
<rect x="137.1" y="205.7" fill="#926BAC" width="8.6" height="8.6"/>
<rect x="137.1" y="214.3" fill="#926BAC" width="8.6" height="8.6"/>
<rect x="137.1" y="222.9" fill="#926BAC" width="8.6" height="8.6"/>
<rect x="137.1" y="231.4" fill="#926BAC" width="8.6" height="8.6"/>
<rect x="145.7" y="188.6" fill="#926BAC" width="8.6" height="8.6"/>
<rect x="154.3" y="188.6" fill="#926BAC" width="8.6" height="8.6"/>
<rect x="145.7" y="231.4" fill="#926BAC" width="8.6" height="8.6"/>
<rect x="154.3" y="231.4" fill="#926BAC" width="8.6" height="8.6"/>
<rect x="145.7" y="210" fill="#926BAC" width="8.6" height="8.6"/>
<rect x="154.3" y="210" fill="#926BAC" width="8.6" height="8.6"/>
<rect x="167.1" y="188.6" fill="#926BAC" width="8.6" height="8.6"/>
<rect x="167.1" y="197.1" fill="#926BAC" width="8.6" height="8.6"/>
<rect x="167.1" y="205.7" fill="#926BAC" width="8.6" height="8.6"/>
<rect x="167.1" y="214.3" fill="#926BAC" width="8.6" height="8.6"/>
<rect x="167.1" y="222.9" fill="#926BAC" width="8.6" height="8.6"/>
<rect x="167.1" y="231.4" fill="#926BAC" width="8.6" height="8.6"/>
<rect x="175.7" y="188.6" fill="#926BAC" width="8.6" height="8.6"/>
<rect x="184.3" y="188.6" fill="#926BAC" width="8.6" height="8.6"/>
<rect x="175.7" y="231.4" fill="#926BAC" width="8.6" height="8.6"/>
<rect x="184.3" y="231.4" fill="#926BAC" width="8.6" height="8.6"/>
<rect x="205.7" y="188.6" fill="#926BAC" width="8.6" height="8.6"/>
<rect x="214.3" y="197.1" fill="#926BAC" width="8.6" height="8.6"/>
<rect x="214.3" y="205.7" fill="#926BAC" width="8.6" height="8.6"/>
<rect x="214.3" y="214.3" fill="#926BAC" width="8.6" height="8.6"/>
<rect x="214.3" y="222.9" fill="#926BAC" width="8.6" height="8.6"/>
<rect x="214.3" y="231.4" fill="#926BAC" width="8.6" height="8.6"/>
<polyline fill="#926BAC" points="197.1,197.1 205.7,197.1 205.7,188.6 197.1,188.6 "/>
<rect x="214.3" y="188.6" fill="#926BAC" width="8.6" height="8.6"/>
<rect x="231.4" y="188.6" fill="#926BAC" width="8.6" height="8.6"/>
<polyline fill="#926BAC" points="222.9,197.1 231.4,197.1 231.4,188.6 222.9,188.6 "/>
<rect x="86.7" y="121.3" fill="#202020" width="13.3" height="13.3"/>
<rect x="140" y="121.3" fill="#202020" width="13.3" height="13.3"/>
<rect x="113.3" y="121.3" fill="#202020" width="13.3" height="13.3"/>
<rect x="126.7" y="134.7" fill="#202020" width="13.3" height="13.3"/>
<rect x="100" y="134.7" fill="#202020" width="13.3" height="13.3"/>
<rect x="113.3" y="148" fill="#202020" width="13.3" height="13.3"/>
<rect x="126.7" y="108" fill="#202020" width="13.3" height="13.3"/>
<rect x="100" y="108" fill="#202020" width="13.3" height="13.3"/>
</svg>
