<?xml version="1.0" encoding="utf-8"?>
<!-- Generator: Adobe Illustrator 18.1.1, SVG Export Plug-In . SVG Version: 6.00 Build 0)  -->
<svg version="1.1" id="Layer_1" xmlns="http://www.w3.org/2000/svg" xmlns:xlink="http://www.w3.org/1999/xlink" x="0px" y="0px"
	 viewBox="0 0 240 240" enable-background="new 0 0 240 240" xml:space="preserve">
<g>
	<path fill="#926CAC" d="M106.6,189.5h2.6c2.8,0,4.1,0.6,4.1,4.2v34.5c0,3.6-1.3,4.2-4.1,4.2h-2.6V189.5L106.6,189.5z M95.7,239.2
		h15.5c8.4,0,12.9-4.8,12.9-10.2v-33.4c0-9.9-4.5-12.8-15.3-12.8H95.7L95.7,239.2L95.7,239.2z"/>
	<path fill="#926CAC" d="M140.8,189.5h2.6c2.5,0,4.1,0.6,4.1,2.8v10.2c0,2.1-0.8,3.6-4.6,3.6h-2.1L140.8,189.5L140.8,189.5z
		 M140.8,239.2v-26.1c5-0.2,6.7,1.2,6.7,4.6c0,6.6-0.5,15.1,1.3,21.5h10.9c-1.7-7.8-1.1-15.7-1.7-23.2c-0.4-5.1-5.5-6.4-10.4-6.9
		v-0.2c9.3-0.8,10.8-4.3,10.8-8.5v-8c0-7.3-5.3-9.7-14.1-9.7H130v56.4L140.8,239.2L140.8,239.2z"/>
	<path fill="#926CAC" d="M175.2,216.6l2.7-23.4h0.7l2.3,23.4H175.2L175.2,216.6z M161.9,239.2h9.9l2.4-15.3h7.7l2.1,15.3h11
		l-8.3-56.4h-16.3L161.9,239.2L161.9,239.2z"/>
	<path fill="#926CAC" d="M199.4,239.2l-6.7-56.4h11l2.3,20.5c0.6,6.6,1.1,13.2,1.3,20h0.5c0-7.4,0.7-14.7,1.2-21.9l2.5-18.5h11.8
		l2.3,22.3c0.7,6.9,0.8,12.1,1.1,18.2h0.5c0.3-5.5,0.4-11.6,1.1-16.6l2.8-23.9h8.8l-7.3,56.4h-11.8l-1.8-20.3
		c-0.3-7.3-1.3-14.5-1.3-21.8h-0.5c-0.9,6.2-1.1,12.4-2.1,18.6l-3.1,23.4L199.4,239.2L199.4,239.2z"/>
	<path fill="#F6A111" d="M13.7,202.1v-11.5c0-2.9-0.8-3.5-2.2-3.5c-1.5,0-2.3,0.6-2.3,3.5v38.2c0,2.9,0.8,3.5,2.3,3.5
		c1.4,0,2.2-0.6,2.2-3.5v-12.2H21v12.9c0,7.4-5,9.5-9.5,9.5C7,239,2,236.9,2,229.5v-39.6c0-7.4,5-9.5,9.5-9.5c4.5,0,9.5,2.1,9.5,9.5
		v12.2L13.7,202.1L13.7,202.1z"/>
	<path fill="#F6A111" d="M34,231.2c0,2.1-0.6,2.2-1.6,2.2c-1,0-1.6-0.2-1.6-2.2v-30.9c0-2.1,0.6-2.2,1.6-2.2c1,0,1.6,0.2,1.6,2.2
		V231.2L34,231.2z M40.6,200.2c0-4.7-3.2-7.6-8.2-7.6s-8.2,2.9-8.2,7.6v31.2c0,4.7,3.2,7.6,8.2,7.6s8.2-2.9,8.2-7.6V200.2
		L40.6,200.2z"/>
	<path fill="#F6A111" d="M43.4,193.6H50v2.6h0.1c1-2.1,2.7-3.2,4.5-3.2c5.2,0,5.1,3.9,5.1,8.6v15.6h-6.6v-15c0-1.3-0.1-2.8-1.4-2.8
		c-1.6,0-1.7,1.5-1.7,2.8v36.6h-6.6V193.6L43.4,193.6z"/>
	<path fill="#F6A111" d="M72.2,211.5H69v-11.2c0-2.1,0.6-2.2,1.6-2.2c1,0,1.6,0.2,1.6,2.2L72.2,211.5L72.2,211.5z M72.2,220.6v10.6
		c0,2.1-0.6,2.2-1.6,2.2c-1,0-1.6-0.2-1.6-2.2v-14.4h9.7v-16.6c0-4.7-3.2-7.6-8.2-7.6s-8.2,2.9-8.2,7.6v31.2c0,4.7,3.2,7.6,8.2,7.6
		c5,0,8.2-2.9,8.2-7.6v-10.8L72.2,220.6L72.2,220.6z"/>
	<polygon fill="#F6A111" points="82,238.9 82,182.5 88.5,182.5 88.5,238.9 	"/>
	<path fill="#010202" d="M11.7,200.1v-11.5c0-2.9-0.8-3.5-2.2-3.5c-1.5,0-2.3,0.6-2.3,3.5v38.2c0,2.9,0.8,3.5,2.3,3.5
		c1.4,0,2.2-0.6,2.2-3.5v-12.2H19v12.9c0,7.4-5,9.5-9.5,9.5C5,237,0,234.9,0,227.5v-39.6c0-7.4,5-9.5,9.5-9.5c4.5,0,9.5,2.1,9.5,9.5
		v12.2H11.7L11.7,200.1z"/>
	<path fill="#010202" d="M32.1,228.7c0,2.1-0.6,2.2-1.6,2.2c-1,0-1.6-0.2-1.6-2.2v-30.9c0-2.1,0.6-2.2,1.6-2.2c1,0,1.6,0.2,1.6,2.2
		V228.7L32.1,228.7z M38.6,197.7c0-4.7-3.2-7.6-8.2-7.6s-8.2,2.9-8.2,7.6v31.2c0,4.7,3.2,7.6,8.2,7.6s8.2-2.9,8.2-7.6V197.7
		L38.6,197.7z"/>
	<path fill="#010202" d="M41.4,190.6H48v2.6h0.1c1-2.1,2.7-3.2,4.5-3.2c5.2,0,5.1,3.9,5.1,8.6v15.6h-6.6v-15c0-1.3-0.1-2.8-1.4-2.8
		c-1.6,0-1.7,1.5-1.7,2.8v36.6h-6.6V190.6L41.4,190.6z"/>
	<path fill="#010202" d="M70.2,209h-3.2v-11.2c0-2.1,0.6-2.2,1.6-2.2c1,0,1.6,0.2,1.6,2.2L70.2,209L70.2,209z M70.2,218.1v10.6
		c0,2.1-0.6,2.2-1.6,2.2c-1,0-1.6-0.2-1.6-2.2v-14.4h9.7v-16.6c0-4.7-3.2-7.6-8.2-7.6s-8.2,2.9-8.2,7.6v31.2c0,4.7,3.2,7.6,8.2,7.6
		c5,0,8.2-2.9,8.2-7.6v-10.8H70.2L70.2,218.1z"/>
	<polygon fill="#010202" points="80,235.9 80,179.5 86.6,179.5 86.6,235.9 	"/>
	<path fill="#010202" d="M104.3,186.3h2.6c2.8,0,4.1,0.6,4.1,4.2V225c0,3.6-1.3,4.2-4.1,4.2h-2.6V186.3L104.3,186.3z M93.4,235.9
		h15.5c8.4,0,12.9-4.8,12.9-10.2v-33.4c0-9.9-4.5-12.8-15.3-12.8H93.4L93.4,235.9L93.4,235.9z"/>
	<path fill="#010202" d="M138.5,186.3h2.6c2.5,0,4.1,0.6,4.1,2.8v10.2c0,2.1-0.8,3.6-4.6,3.6h-2.1L138.5,186.3L138.5,186.3z
		 M138.5,235.9v-26.1c5-0.2,6.7,1.2,6.7,4.6c0,6.6-0.5,15.1,1.3,21.5h10.9c-1.7-7.8-1.1-15.7-1.7-23.2c-0.4-5.1-5.5-6.4-10.4-6.9
		v-0.2c9.3-0.8,10.8-4.3,10.8-8.5v-8c0-7.3-5.3-9.7-14.1-9.7h-14.4v56.4H138.5L138.5,235.9z"/>
	<path fill="#010202" d="M172.9,213.3l2.7-23.4h0.7l2.3,23.4H172.9L172.9,213.3z M159.6,235.9h9.9l2.4-15.3h7.7l2.1,15.3h11
		l-8.3-56.4h-16.3L159.6,235.9L159.6,235.9z"/>
	<path fill="#010202" d="M197.1,235.9l-6.7-56.4h11l2.3,20.5c0.6,6.6,1.1,13.2,1.3,20h0.5c0-7.4,0.7-14.7,1.2-21.9l2.5-18.5H221
		l2.3,22.3c0.7,6.9,0.8,12.1,1.1,18.2h0.5c0.3-5.5,0.4-11.6,1.1-16.6l2.8-23.9h8.8l-7.3,56.4h-11.8l-1.8-20.3
		c-0.3-7.3-1.3-14.5-1.3-21.8h-0.5c-0.9,6.2-1.1,12.4-2.1,18.6l-3.1,23.4L197.1,235.9L197.1,235.9z"/>
</g>
<rect x="4.6" y="4.6" fill="#202020" width="110.4" height="107.6"/>
<rect x="4.6" y="4.6" fill="#FFFFFF" width="101.8" height="99"/>
<path fill="#926CAC" d="M4.6,4.6h101.8v99H4.6V4.6z M0,108.3h111V0H0V108.3z M74.9,44.4c-3.6,0-4.9,1.8-4.9,3.4
	c0,1.7,0.8,2.8,5.7,5.4c7.3,3.5,9.5,6.9,9.5,11.8c0,7.4-5.7,11.4-13.3,11.4c-4,0-7.5-0.8-9.5-2c-0.3-0.1-0.4-0.4-0.4-0.7v-6.8
	c0-0.5,0.2-0.6,0.6-0.4c2.9,1.9,6.3,2.7,9.3,2.7c3.6,0,5.2-1.5,5.2-3.6c0-1.7-1.1-3.1-5.7-5.6c-6.6-3.1-9.3-6.3-9.3-11.7
	c0-6,4.7-10.9,12.8-10.9c4,0,6.8,0.6,8.3,1.3c0.4,0.2,0.5,0.6,0.5,0.9V46c0,0.4-0.2,0.6-0.7,0.5C80.9,45.2,77.9,44.4,74.9,44.4
	L74.9,44.4z M35.1,49.9C36.2,50,37,50,38.8,50c5.4,0,10.5-1.9,10.5-9.3c0-5.9-3.6-8.8-9.8-8.8c-1.8,0-3.6,0.1-4.5,0.1L35.1,49.9
	L35.1,49.9z M26.8,25.4c0-0.3,0.6-0.6,1-0.6c3-0.1,7.4-0.2,11.9-0.2c12.8,0,17.8,7,17.8,16c0,11.7-8.5,16.8-19,16.8
	c-1.8,0-2.4-0.1-3.6-0.1v17.8c0,0.4-0.1,0.6-0.6,0.6h-7.1c-0.4,0-0.6-0.1-0.6-0.6L26.8,25.4L26.8,25.4z"/>
<rect x="129.6" y="4.6" fill="#202020" width="110.4" height="107.6"/>
<rect x="129.6" y="4.6" fill="#FFFFFF" width="101.8" height="99"/>
<path fill="#F6A111" d="M129.6,4.6h101.8v99H129.6V4.6z M125,108.3h111V0H125V108.3z M197.7,38.6c0-0.4,0.1-0.6,0.6-0.6h7.3
	c0.4,0,0.6,0.1,0.6,0.6v36.5c0,0.4-0.1,0.6-0.6,0.6h-7.2c-0.5,0-0.6-0.2-0.6-0.6L197.7,38.6L197.7,38.6L197.7,38.6z M197.2,28.1
	c0-3,2.1-4.7,4.7-4.7c2.8,0,4.7,1.9,4.7,4.7c0,3-2,4.7-4.8,4.7C199.2,32.8,197.2,31.2,197.2,28.1z M176.4,53.8
	c-1.3-5.1-4.4-16.3-5.5-21.7h-0.1c-1,5.4-3.4,14.6-5.4,21.7H176.4L176.4,53.8z M163.6,61.3l-3.6,13.9c-0.1,0.4-0.2,0.5-0.7,0.5h-6.8
	c-0.5,0-0.6-0.1-0.5-0.7l13.1-46c0.2-0.8,0.4-1.3,1-3.8c0-0.3,0.1-0.5,0.4-0.5l9.1,0c0.3,0,0.5,0.1,0.6,0.5l14.7,49.9
	c0.1,0.4,0,0.6-0.4,0.6h-7.7c-0.4,0-0.6-0.1-0.7-0.4l-3.8-13.9L163.6,61.3L163.6,61.3z"/>
</svg>
