<?xml version="1.0" encoding="utf-8"?>
<!-- Generator: Adobe Illustrator 18.1.1, SVG Export Plug-In . SVG Version: 6.00 Build 0)  -->
<svg version="1.1" id="cogs" xmlns="http://www.w3.org/2000/svg" xmlns:xlink="http://www.w3.org/1999/xlink" x="0px" y="0px"
	 viewBox="0 0 240 240" enable-background="new 0 0 240 240" xml:space="preserve">
<polygon fill="#FFFFFF" points="98.5,106.6 103.9,100.5 107.9,103.5 111.6,101.8 112.9,96.6 121.4,96.6 123.1,101.8 125.8,104.1 
	131,100.5 136.9,106.6 134.3,110.9 135.6,114.9 141,116.6 141,124.3 135.6,125.5 133.9,128.6 136.9,133.4 131,139.5 126.2,136.6 
	122.4,138.2 121,143.4 113.1,143.4 110.3,139.1 108.7,136.4 104.9,139.1 100.6,136.1 98.5,133 100.4,129.5 99.5,125.5 93.9,124.7 
	93.9,116.4 97.6,114.5 99.3,114.7 100.6,110.1 "/>
<path fill="#202020" d="M139.7,113.8l-3.4-0.6c-0.3-0.6-0.3-1.3-0.6-1.9l1.9-2.8l1.6-2.2l-8.1-8.1l-2.2,1.6l-2.8,1.9
	c-0.6-0.3-1.3-0.3-1.9-0.6l-0.6-3.4l-0.6-2.5h-11.3l-0.6,2.5l-0.6,3.4c-0.6,0.3-1.3,0.3-1.9,0.6l-2.8-1.9l-2.2-1.3l-7.8,7.8l1.6,2.2
	l1.9,2.8c-0.6,0.6-0.6,1.3-0.9,1.9l-3.4,0.6l-2.5,0.6v11.3l2.5,0.6l3.4,0.6c0.3,0.6,0.3,1.3,0.6,1.9l-1.9,2.8l-1.6,2.2l8.1,8.1
	l2.2-1.6l2.8-1.9c0.6,0.3,1.3,0.3,1.9,0.6l0.6,3.4l0.6,2.5h11.3l0.6-2.5l0.6-3.4c0.6-0.3,1.3-0.3,1.9-0.6l2.8,1.9l2.2,1.6l8.1-8.1
	l-1.6-2.2l-1.9-2.8c0.3-0.6,0.6-1.3,0.6-1.9l3.4-0.6l2.5-0.6v-11.3L139.7,113.8z M139.1,123.1l-5.3,0.9c-0.3,1.6-0.9,3.1-1.9,4.7
	l2.8,4.4l-4.4,4.4l-4.4-2.8c-1.6,0.9-3.1,1.6-4.7,1.9l-0.9,5.3h-6.3l-0.9-5.3c-1.6-0.3-3.1-0.9-4.7-1.9l-4.4,2.8l-4.4-4.4l2.8-4.4
	c-0.9-1.6-1.6-3.1-1.9-4.7l-5.3-0.9v-6.3l5.3-0.9c0.3-1.6,0.9-3.1,1.9-4.7l-3.1-4.4l4.4-4.4l4.4,2.8c1.6-0.9,3.1-1.6,4.7-1.9
	l1.3-5.3h6.3l0.9,5.3c1.6,0.3,3.1,0.9,4.7,1.9l4.4-2.8l4.4,4.4l-2.8,4.4c0.9,1.6,1.6,3.1,1.9,4.7l5.3,0.9V123.1z"/>
<path fill="#202020" d="M117.2,109.1c-5.9,0-10.9,5-10.9,10.9s5,10.9,10.9,10.9s10.9-5,10.9-10.9S123.1,109.1,117.2,109.1z
	 M117.2,127.8c-4.4,0-7.8-3.4-7.8-7.8s3.4-7.8,7.8-7.8s7.8,3.4,7.8,7.8S121.6,127.8,117.2,127.8z"/>
<polygon fill="#FFFFFF" points="162.9,120 218.5,120 227.1,127.4 238,137.1 238,238 162.9,238 "/>
<polygon fill="#FFFFFF" points="2,2 57.6,2 67.3,10.5 77.1,19.1 77.1,120 2,120 "/>
<rect x="2" y="46" fill="#936BAC" width="75.1" height="30"/>
<polygon fill="none" stroke="#936BAC" stroke-width="4" stroke-miterlimit="10" points="77.1,120 2,120 2,2 57.6,2 77.1,18.8 "/>
<text transform="matrix(1 0 0 1 13.4219 69.9395)" fill="#FFFFFF" font-family="'Arial-BoldMT'" font-size="25.7455">PSD</text>
<polyline fill="none" stroke="#926BAC" stroke-width="4" stroke-miterlimit="10" points="57.6,2 57.6,19.1 77.1,19.1 "/>
<polygon fill="none" stroke="#F6A00C" stroke-width="4" stroke-miterlimit="10" points="238,238 162.9,238 162.9,120 218.5,120 
	238,136.8 "/>
<rect x="162.9" y="163.7" fill="#F6A00C" width="75.1" height="30"/>
<polyline fill="none" stroke="#F6A00C" stroke-width="4" stroke-miterlimit="10" points="218.5,120 218.5,137.1 238,137.1 "/>
<line fill="none" stroke="#FFFFFF" stroke-width="3" stroke-miterlimit="10" x1="189.6" y1="170.6" x2="180.5" y2="179.7"/>
<line fill="none" stroke="#FFFFFF" stroke-width="3" stroke-miterlimit="10" x1="189.6" y1="186.8" x2="180.5" y2="177.6"/>
<path fill="none" stroke="#FFFFFF" stroke-width="3" stroke-miterlimit="10" d="M216.1,179.7"/>
<path fill="none" stroke="#FFFFFF" stroke-width="3" stroke-miterlimit="10" d="M206.9,170.6"/>
<path fill="none" stroke="#FFFFFF" stroke-width="3" stroke-miterlimit="10" d="M215.8,178.7"/>
<path fill="none" stroke="#FFFFFF" stroke-width="3" stroke-miterlimit="10" d="M206.7,187.9"/>
<line fill="none" stroke="#FFFFFF" stroke-width="3" stroke-miterlimit="10" x1="204.4" y1="167" x2="196.5" y2="191"/>
<line fill="none" stroke="#FFFFFF" stroke-width="3" stroke-miterlimit="10" x1="211.1" y1="170.6" x2="220.3" y2="179.7"/>
<line fill="none" stroke="#FFFFFF" stroke-width="3" stroke-miterlimit="10" x1="211.1" y1="186.8" x2="220.3" y2="177.6"/>
</svg>
