<?xml version="1.0" encoding="utf-8"?>
<!-- Generator: Adobe Illustrator 18.1.1, SVG Export Plug-In . SVG Version: 6.00 Build 0)  -->
<svg version="1.1" id="Layer_3" xmlns="http://www.w3.org/2000/svg" xmlns:xlink="http://www.w3.org/1999/xlink" x="0px" y="0px"
	 viewBox="0 0 240 240" enable-background="new 0 0 240 240" xml:space="preserve">
<path fill="#FFFFFF" d="M228.6,135.7c0.7-4.9,1-9.8,1-14.9c0-60.5-49.3-109.6-110.2-109.6c-6,0-12,0.5-17.8,1.4
	C91.3,5.9,79,2,65.8,2C29.4,2,0,31.4,0,67.8C0,81,3.9,93.3,10.6,103.6c-0.9,5.6-1.4,11.4-1.4,17.3c0,60.6,49.3,109.6,110.2,109.6
	c6.9,0,13.6-0.7,20.1-1.8c10.1,6.3,22,9.9,34.8,9.9c36.3,0,65.8-29.4,65.8-65.8C240,159.1,235.8,146.3,228.6,135.7L228.6,135.7z
	 M129.7,201.6c-35,1.8-51.4-5.9-66.4-20c-16.8-15.7-10-33.7,3.6-34.6c13.7-0.9,21.8,15.5,29.1,20c7.3,4.5,35,14.9,49.6-1.8
	c15.9-18.2-10.6-27.6-30-30.5c-27.8-4.1-62.8-19.1-60.1-48.7s25.1-44.7,48.7-46.9c30-2.7,49.6,4.6,65.1,17.7
	c17.9,15.2,8.2,32.3-3.2,33.7C154.8,92,142,65.5,117,65.1C91.2,64.7,73.8,92,105.6,99.7c31.9,7.7,66,10.9,78.3,40
	C196.2,168.9,164.8,199.8,129.7,201.6z"/>
</svg>
