<?xml version="1.0" encoding="utf-8"?>
<!-- Generator: Adobe Illustrator 18.1.1, SVG Export Plug-In . SVG Version: 6.00 Build 0)  -->
<svg version="1.1" id="Layer_1" xmlns="http://www.w3.org/2000/svg" xmlns:xlink="http://www.w3.org/1999/xlink" x="0px" y="0px"
	 viewBox="0 0 240 240" enable-background="new 0 0 240 240" xml:space="preserve">
<g>
	<path fill="#FFFFFF" d="M238.7,175.2c-0.3-0.6-0.6-1.1-0.8-1.6c-4.2-7.5-12.1-16.7-23.9-27.6l-0.2-0.2l-0.1-0.1l-0.1-0.1h-0.1
		c-5.3-5.1-8.7-8.5-10.1-10.2c-2.6-3.3-3.2-6.7-1.8-10.1c1-2.6,4.8-8,11.2-16.4c3.4-4.4,6.1-8,8.1-10.6
		c14.4-19.2,20.7-31.4,18.7-36.7l-0.7-1.2c-0.5-0.8-1.8-1.4-3.9-2.1c-2.1-0.6-4.8-0.7-8-0.3l-36,0.2c-0.6-0.2-1.4-0.2-2.5,0.1
		s-1.6,0.4-1.6,0.4l-0.6,0.3l-0.5,0.4c-0.4,0.2-0.9,0.7-1.4,1.3s-0.9,1.4-1.2,2.2c-3.9,10.1-8.4,19.5-13.4,28.1
		c-3.1,5.2-5.9,9.6-8.5,13.4s-4.7,6.6-6.5,8.4s-3.3,3.2-4.7,4.3c-1.4,1.1-2.5,1.5-3.2,1.4c-0.8-0.2-1.5-0.3-2.1-0.5
		c-1.2-0.8-2.1-1.8-2.8-3.1c-0.7-1.3-1.2-2.9-1.4-4.9s-0.4-3.6-0.4-5.1c0-1.4,0-3.4,0.1-6s0.1-4.3,0.1-5.2c0-3.2,0.1-6.6,0.2-10.3
		c0.1-3.7,0.2-6.6,0.3-8.8c0.1-2.2,0.1-4.5,0.1-6.9s-0.1-4.3-0.4-5.7c-0.3-1.4-0.7-2.7-1.3-4s-1.4-2.3-2.6-3
		c-1.1-0.7-2.5-1.3-4.2-1.7c-4.4-1-10-1.5-16.9-1.6c-15.5-0.2-25.4,0.8-29.9,3c-1.7,0.9-3.3,2.2-4.7,3.7c-1.5,1.8-1.7,2.8-0.6,3
		c5,0.7,8.5,2.5,10.6,5.4l0.8,1.5c0.6,1.1,1.2,3,1.8,5.7c0.6,2.7,1,5.8,1.1,9.1c0.4,6.1,0.4,11.3,0,15.6c-0.4,4.3-0.8,7.7-1.2,10.1
		c-0.4,2.4-0.9,4.4-1.7,5.9c-0.8,1.5-1.2,2.4-1.5,2.7c-0.2,0.3-0.5,0.5-0.6,0.6c-1.1,0.4-2.2,0.6-3.4,0.6c-1.2,0-2.6-0.6-4.2-1.8
		c-1.7-1.2-3.4-2.8-5.2-4.8c-1.8-2-3.8-4.9-6.1-8.6c-2.2-3.7-4.6-8-7-13l-2-3.6c-1.2-2.3-3-5.7-5.1-10.2c-2.2-4.5-4.1-8.8-5.7-12.9
		c-0.7-1.7-1.7-3.1-3-4l-0.6-0.4c-0.4-0.3-1.1-0.7-2-1.1c-0.9-0.4-1.9-0.6-2.9-0.8L8,57.8c-3.5,0-5.9,0.8-7.1,2.4l-0.5,0.7
		C0.1,61.3,0,62,0,62.9s0.2,2,0.8,3.4c5,11.7,10.4,23.1,16.3,34s11,19.7,15.3,26.4s8.7,13,13.2,18.9s7.5,9.7,8.9,11.4
		c1.5,1.7,2.6,2.9,3.4,3.7l3.1,3c2,2,4.9,4.4,8.8,7.2s8.2,5.5,12.9,8.3c4.7,2.7,10.2,4.9,16.4,6.6c6.2,1.7,12.3,2.4,18.2,2.1h14.4
		c2.9-0.3,5.1-1.2,6.6-2.7l0.5-0.6c0.3-0.5,0.6-1.3,0.9-2.3c0.3-1,0.4-2.2,0.4-3.4c-0.1-3.6,0.2-6.8,0.8-9.7s1.3-5,2.1-6.5
		s1.7-2.7,2.7-3.7s1.7-1.6,2.1-1.8c0.4-0.2,0.7-0.4,1-0.4c2-0.7,4.4,0,7.1,1.9c2.7,2,5.2,4.4,7.6,7.2c2.4,2.9,5.2,6.1,8.6,9.7
		c3.3,3.6,6.2,6.2,8.7,8l2.5,1.5c1.7,1,3.8,1.9,6.5,2.7s5,1,7,0.6l32-0.5c3.2,0,5.6-0.5,7.4-1.6c1.7-1,2.8-2.2,3.1-3.4
		s0.4-2.7,0.1-4.3C239.3,176.9,239,175.8,238.7,175.2z"/>
</g>
</svg>
